<?xml version="1.0" encoding="utf-8"?>
<!-- Created with "sPlan" (http://www.abacom-online.de) -->
<svg version="1.1" baseProfile="full"
xmlns="http://www.w3.org/2000/svg"
width="128mm" height="77mm"
viewBox="0 0 1283 772">
<title>Shelly 1 mit ADDON - Schaltung</title>
<defs>
<style type="text/css">
<![CDATA[
polyline {stroke-linecap:round; stroke-linejoin:round}
polygon {stroke-linecap:round; stroke-linejoin:round}
path {stroke-linecap:round; stroke-linejoin:round}
circle {stroke-linecap:round; stroke-linejoin:round}
]]>
</style>
</defs>
<circle cx="691.35" cy="591.00" r="140.35" fill="rgb(64,0,64)" stroke="rgb(0,0,0)" stroke-width="2" />
<path fill="rgb(255,255,255)" stroke="rgb(255,255,255)" stroke-width="2" d=" M 591 441 L 791 441 791 481 591 481 591 441 Z" />
<polyline points="601.00 481.00 781.00 481.00" fill="none" stroke="rgb(0,0,0)" stroke-width="2" />
<path fill="rgb(255,255,255)" stroke="rgb(255,255,255)" stroke-width="0" d=" M 622.61 584.20 L 625.81 584.20 625.92 584.95 626.08 585.65 626.28 586.29 626.54 586.87 626.84 587.40 627.20 587.89 627.63 588.33 628.13 588.73 628.71 589.10 629.35 589.43 630.05 589.71 630.78 589.92 631.55 590.08 632.35 590.17 633.19 590.20 633.93 590.18 634.63 590.11 635.30 589.99 635.94 589.83 636.53 589.62 637.09 589.36 637.58 589.08 638.01 588.76 638.38 588.40 638.70 588.01 638.95 587.60 639.15 587.18 639.29 586.75 639.38 586.31 639.41 585.86 639.39 585.42 639.32 584.99 639.22 584.59 639.07 584.22 638.88 583.87 638.62 583.53 638.28 583.22 637.84 582.93 637.32 582.66 636.71 582.41 636.18 582.24 635.46 582.03 634.52 581.78 633.39 581.50 632.05 581.19 630.69 580.86 629.51 580.54 628.51 580.22 627.68 579.92 627.03 579.61 626.34 579.21 625.72 578.77 625.18 578.29 624.71 577.78 624.31 577.23 623.99 576.65 623.74 576.04 623.56 575.41 623.45 574.74 623.42 574.05 623.47 573.29 623.60 572.54 623.82 571.82 624.13 571.11 624.53 570.43 625.02 569.79 625.59 569.21 626.23 568.70 626.96 568.25 627.78 567.87 628.65 567.56 629.56 567.31 630.51 567.14 631.49 567.03 632.52 567.00 633.64 567.04 634.71 567.15 635.72 567.33 636.68 567.58 637.58 567.91 638.42 568.31 639.17 568.78 639.85 569.32 640.44 569.92 640.95 570.59 641.38 571.32 641.72 572.08 641.97 572.89 642.14 573.72 642.22 574.60 639.02 574.60 638.86 573.77 638.60 573.03 638.24 572.37 637.77 571.80 637.21 571.31 636.53 570.91 635.74 570.60 634.83 570.38 633.79 570.24 632.64 570.20 631.45 570.24 630.40 570.38 629.48 570.60 628.70 570.90 628.06 571.30 627.54 571.76 627.14 572.25 626.85 572.78 626.68 573.35 626.62 573.96 626.66 574.48 626.78 574.96 626.99 575.40 627.27 575.81 627.64 576.17 628.17 576.53 628.95 576.88 630.00 577.24 631.30 577.60 632.86 577.96 634.44 578.32 635.79 578.66 636.92 578.98 637.83 579.28 638.52 579.57 639.31 580.00 640.02 580.48 640.64 580.99 641.17 581.56 641.62 582.16 641.97 582.81 642.25 583.49 642.45 584.22 642.57 584.98 642.61 585.78 642.56 586.58 642.42 587.37 642.19 588.13 641.87 588.88 641.46 589.61 640.96 590.30 640.38 590.92 639.72 591.48 638.97 591.97 638.15 592.40 637.27 592.76 636.35 593.04 635.38 593.24 634.37 593.36 633.31 593.40 631.99 593.36 630.76 593.23 629.62 593.01 628.56 592.71 627.60 592.33 626.72 591.85 625.91 591.29 625.19 590.64 624.55 589.91 623.98 589.09 623.51 588.20 623.14 587.27 622.86 586.29 622.68 585.27 622.61 584.20 Z M 647.00 593.00 L 647.03 567.40 650.23 567.40 650.22 576.81 651.15 575.73 652.17 574.88 653.28 574.28 654.49 573.92 655.79 573.80 656.59 573.83 657.36 573.93 658.07 574.10 658.75 574.33 659.38 574.62 659.96 574.98 660.46 575.38 660.90 575.83 661.26 576.34 661.56 576.89 661.79 577.53 661.98 578.26 662.11 579.10 662.19 580.05 662.21 581.10 662.20 593.00 659.00 593.00 659.01 581.43 658.97 580.55 658.85 579.78 658.65 579.10 658.36 578.53 658.00 578.06 657.56 577.68 657.05 577.38 656.47 577.17 655.83 577.04 655.11 577.00 654.56 577.03 654.02 577.11 653.50 577.26 652.99 577.46 652.49 577.71 652.02 578.02 651.62 578.36 651.27 578.75 650.97 579.18 650.73 579.64 650.55 580.17 650.40 580.77 650.30 581.44 650.23 582.19 650.21 583.01 650.20 593.00 Z M 679.77 587.40 L 682.91 587.80 682.53 588.82 682.05 589.74 681.46 590.57 680.77 591.30 679.97 591.93 679.06 592.46 678.06 592.87 676.97 593.16 675.78 593.34 674.50 593.40 672.89 593.30 671.43 592.99 670.10 592.49 668.91 591.78 667.86 590.87 666.98 589.77 666.29 588.51 665.80 587.09 665.51 585.50 665.41 583.76 665.51 581.95 665.81 580.31 666.31 578.84 667.00 577.54 667.90 576.41 668.95 575.47 670.12 574.74 671.41 574.22 672.81 573.90 674.34 573.80 675.81 573.90 677.17 574.22 678.42 574.74 679.56 575.47 680.59 576.41 681.46 577.53 682.14 578.83 682.62 580.30 682.92 581.93 683.01 583.74 683.01 583.86 683.01 584.01 683.00 584.19 683.00 584.38 682.99 584.60 668.61 584.60 668.74 585.63 668.99 586.57 669.36 587.40 669.84 588.13 670.44 588.76 671.14 589.28 671.89 589.68 672.72 589.97 673.61 590.14 674.56 590.20 675.28 590.17 675.95 590.09 676.58 589.96 677.16 589.77 677.70 589.53 678.20 589.23 678.66 588.87 679.07 588.44 679.44 587.95 679.77 587.40 Z M 668.61 581.40 L 679.81 581.40 679.69 580.67 679.50 580.01 679.24 579.43 678.92 578.93 678.53 578.50 677.85 577.96 677.08 577.54 676.24 577.24 675.32 577.06 674.33 577.00 673.42 577.05 672.57 577.19 671.78 577.43 671.05 577.77 670.38 578.20 669.80 578.71 669.33 579.28 668.98 579.92 668.74 580.63 668.61 581.40 Z M 686.20 593.00 L 686.23 567.40 689.43 567.40 689.40 593.00 Z M 694.20 593.00 L 694.23 567.40 697.43 567.40 697.40 593.00 Z M 702.19 600.20 L 701.79 597.12 702.16 597.22 702.50 597.30 702.83 597.35 703.13 597.39 703.42 597.40 703.78 597.39 704.12 597.34 704.42 597.27 704.69 597.17 704.94 597.05 705.16 596.89 705.36 596.72 705.55 596.52 705.72 596.30 705.87 596.06 705.99 595.82 706.14 595.46 706.32 594.99 706.52 594.40 706.75 593.71 706.78 593.59 706.83 593.45 706.88 593.30 706.93 593.12 707.00 592.93 700.22 574.20 703.59 574.20 707.19 584.64 707.46 585.44 707.72 586.26 707.98 587.09 708.22 587.95 708.44 588.81 708.67 588.15 708.91 587.44 709.16 586.71 709.42 585.93 709.70 585.12 713.42 574.20 716.77 574.20 710.21 593.45 709.79 594.59 709.41 595.57 709.06 596.41 708.76 597.09 708.50 597.62 708.17 598.21 707.81 598.72 707.44 599.18 707.05 599.56 706.64 599.88 706.21 600.14 705.74 600.34 705.24 600.48 704.71 600.57 704.15 600.60 703.79 600.58 703.42 600.54 703.03 600.46 702.62 600.34 702.19 600.20 Z M 741.40 593.00 L 738.20 593.00 738.22 573.05 737.73 573.48 737.18 573.91 736.57 574.35 735.91 574.78 735.19 575.21 734.45 575.62 733.75 575.99 733.07 576.31 732.43 576.59 731.82 576.83 731.82 573.80 732.86 573.28 733.86 572.73 734.80 572.13 735.68 571.49 736.51 570.81 737.27 570.11 737.93 569.42 738.50 568.74 738.98 568.06 739.36 567.40 741.43 567.40 Z" />
<path fill="rgb(255,255,255)" stroke="rgb(255,255,255)" stroke-width="0" d=" M 620.82 633.00 L 631.06 607.40 633.79 607.40 643.98 633.00 640.60 633.00 637.67 625.00 627.13 625.00 624.20 633.00 Z M 628.31 621.80 L 636.51 621.80 634.21 615.51 633.76 614.28 633.36 613.17 633.00 612.19 632.69 611.33 632.42 610.60 632.13 611.39 631.83 612.23 631.51 613.10 631.17 614.01 630.83 614.96 Z M 647.40 633.00 L 647.42 607.40 656.26 607.40 657.40 607.41 658.42 607.46 659.34 607.53 660.14 607.64 660.83 607.77 661.68 608.00 662.48 608.30 663.24 608.67 663.94 609.10 664.59 609.60 665.36 610.32 666.04 611.12 666.65 612.00 667.17 612.95 667.62 613.97 667.98 615.07 668.26 616.23 668.46 617.44 668.57 618.72 668.61 620.06 668.59 621.20 668.50 622.29 668.37 623.32 668.17 624.30 667.93 625.23 667.64 626.10 667.32 626.91 666.97 627.65 666.59 628.34 666.17 628.96 665.74 629.52 665.28 630.04 664.81 630.50 664.33 630.91 663.83 631.28 663.30 631.60 662.73 631.89 662.12 632.15 661.47 632.37 660.77 632.56 660.03 632.72 659.25 632.84 658.43 632.93 657.56 632.98 656.66 633.00 Z M 650.61 629.80 L 656.27 629.80 657.27 629.78 658.19 629.73 659.01 629.63 659.74 629.50 660.39 629.34 660.96 629.14 661.48 628.91 661.96 628.65 662.39 628.35 662.76 628.03 663.24 627.53 663.67 626.96 664.06 626.32 664.41 625.62 664.71 624.85 664.96 624.02 665.16 623.12 665.30 622.15 665.38 621.12 665.41 620.01 665.36 618.51 665.20 617.15 664.93 615.94 664.55 614.87 664.06 613.95 663.49 613.16 662.87 612.48 662.21 611.91 661.50 611.46 660.74 611.11 660.10 610.93 659.33 610.78 658.43 610.68 657.38 610.62 656.20 610.60 650.62 610.60 Z M 673.00 633.00 L 673.03 607.40 681.86 607.40 683.00 607.41 684.02 607.46 684.94 607.53 685.74 607.64 686.42 607.77 687.28 608.00 688.08 608.30 688.84 608.67 689.54 609.10 690.19 609.60 690.96 610.32 691.64 611.12 692.25 612.00 692.77 612.95 693.22 613.97 693.58 615.07 693.86 616.23 694.06 617.44 694.17 618.72 694.21 620.06 694.19 621.20 694.10 622.29 693.97 623.32 693.77 624.30 693.53 625.23 693.24 626.10 692.92 626.91 692.57 627.65 692.19 628.34 691.77 628.96 691.34 629.52 690.88 630.04 690.41 630.50 689.93 630.91 689.43 631.28 688.90 631.60 688.33 631.89 687.72 632.15 687.07 632.37 686.37 632.56 685.63 632.72 684.85 632.84 684.03 632.93 683.16 632.98 682.26 633.00 Z M 676.21 629.80 L 681.87 629.80 682.87 629.78 683.79 629.73 684.61 629.63 685.34 629.50 685.99 629.34 686.56 629.14 687.08 628.91 687.56 628.65 687.99 628.35 688.36 628.03 688.84 627.53 689.27 626.96 689.66 626.32 690.01 625.62 690.31 624.85 690.56 624.02 690.76 623.12 690.90 622.15 690.98 621.12 691.01 620.01 690.96 618.51 690.80 617.15 690.53 615.94 690.15 614.87 689.66 613.95 689.09 613.16 688.47 612.48 687.81 611.91 687.10 611.46 686.34 611.11 685.70 610.93 684.93 610.78 684.03 610.68 682.98 610.62 681.80 610.60 676.22 610.60 Z M 697.41 620.54 L 697.55 618.11 697.96 615.90 698.65 613.91 699.60 612.14 700.83 610.59 702.28 609.30 703.88 608.29 705.65 607.58 707.57 607.14 709.64 607.00 711.03 607.07 712.36 607.27 713.63 607.61 714.85 608.08 716.01 608.69 717.09 609.42 718.07 610.25 718.93 611.19 719.69 612.24 720.33 613.39 720.87 614.63 721.28 615.94 721.58 617.31 721.76 618.74 721.81 620.24 721.75 621.76 721.56 623.22 721.24 624.61 720.80 625.93 720.24 627.19 719.56 628.35 718.77 629.40 717.89 630.33 716.89 631.14 715.80 631.83 714.63 632.39 713.43 632.83 712.19 633.15 710.91 633.34 709.60 633.40 708.19 633.33 706.84 633.12 705.56 632.77 704.33 632.29 703.17 631.66 702.09 630.91 701.12 630.06 700.26 629.11 699.51 628.06 698.87 626.91 698.35 625.69 697.94 624.45 697.65 623.17 697.47 621.87 697.41 620.54 Z M 700.61 620.57 L 700.71 622.28 701.02 623.85 701.53 625.26 702.24 626.52 703.16 627.62 704.24 628.55 705.42 629.27 706.70 629.79 708.09 630.10 709.58 630.20 711.10 630.10 712.51 629.78 713.80 629.26 714.99 628.54 716.06 627.60 716.98 626.47 717.69 625.17 718.20 623.69 718.51 622.04 718.61 620.22 718.57 619.04 718.44 617.92 718.23 616.87 717.92 615.87 717.53 614.94 717.06 614.08 716.50 613.29 715.87 612.60 715.15 611.98 714.36 611.44 713.50 610.99 712.60 610.65 711.66 610.40 710.68 610.25 709.66 610.20 708.22 610.30 706.87 610.58 705.59 611.06 704.40 611.73 703.29 612.59 702.33 613.67 701.58 615.01 701.04 616.61 700.72 618.46 700.61 620.57 Z M 726.20 633.00 L 726.22 607.40 729.65 607.40 743.01 627.68 743.03 607.40 746.22 607.40 746.20 633.00 742.78 633.00 729.42 612.71 729.40 633.00 Z" />
<polyline points="831.00 581.00 1041.00 581.00 1041.00 441.00" fill="none" stroke="rgb(255,0,0)" stroke-width="4" />
<polyline points="831.00 591.00 1141.00 591.00 1141.00 441.00" fill="none" stroke="rgb(0,0,0)" stroke-width="4" />
<polyline points="831.00 601.00 1241.00 601.00 1241.00 441.00" fill="none" stroke="rgb(255,255,0)" stroke-width="4" />
<path fill="none" stroke="rgb(64,0,64)" stroke-width="2" d=" M 951 491 L 1031 491 1031 541 951 541 951 491 Z" />
<polyline points="1011.00 541.00 1011.00 491.00" fill="none" stroke="rgb(0,0,0)" stroke-width="2" />
<polyline points="991.00 541.00 991.00 491.00" fill="none" stroke="rgb(0,0,0)" stroke-width="2" />
<polyline points="971.00 491.00 971.00 541.00" fill="none" stroke="rgb(0,0,0)" stroke-width="2" />
<path fill="rgb(176,176,255)" stroke="rgb(64,0,64)" stroke-width="2" d=" M 1011 491 L 1031 491 1031 531 1011 531 1011 491 Z" />
<path fill="rgb(176,176,255)" stroke="rgb(64,0,64)" stroke-width="2" d=" M 991 491 L 1011 491 1011 531 991 531 991 491 Z" />
<path fill="rgb(176,176,255)" stroke="rgb(64,0,64)" stroke-width="2" d=" M 971 491 L 991 491 991 531 971 531 971 491 Z" />
<path fill="rgb(176,176,255)" stroke="rgb(64,0,64)" stroke-width="2" d=" M 951 491 L 971 491 971 531 951 531 951 491 Z" />
<path fill="none" stroke="rgb(64,0,64)" stroke-width="2" d=" M 1051 491 L 1131 491 1131 541 1051 541 1051 491 Z" />
<polyline points="1111.00 541.00 1111.00 491.00" fill="none" stroke="rgb(0,0,0)" stroke-width="2" />
<polyline points="1091.00 541.00 1091.00 491.00" fill="none" stroke="rgb(0,0,0)" stroke-width="2" />
<polyline points="1071.00 491.00 1071.00 541.00" fill="none" stroke="rgb(0,0,0)" stroke-width="2" />
<path fill="rgb(176,176,255)" stroke="rgb(64,0,64)" stroke-width="2" d=" M 1111 491 L 1131 491 1131 531 1111 531 1111 491 Z" />
<path fill="rgb(176,176,255)" stroke="rgb(64,0,64)" stroke-width="2" d=" M 1091 491 L 1111 491 1111 531 1091 531 1091 491 Z" />
<path fill="rgb(176,176,255)" stroke="rgb(64,0,64)" stroke-width="2" d=" M 1071 491 L 1091 491 1091 531 1071 531 1071 491 Z" />
<path fill="rgb(176,176,255)" stroke="rgb(64,0,64)" stroke-width="2" d=" M 1051 491 L 1071 491 1071 531 1051 531 1051 491 Z" />
<path fill="none" stroke="rgb(64,0,64)" stroke-width="2" d=" M 1151 491 L 1231 491 1231 541 1151 541 1151 491 Z" />
<polyline points="1211.00 541.00 1211.00 491.00" fill="none" stroke="rgb(0,0,0)" stroke-width="2" />
<polyline points="1191.00 541.00 1191.00 491.00" fill="none" stroke="rgb(0,0,0)" stroke-width="2" />
<polyline points="1171.00 491.00 1171.00 541.00" fill="none" stroke="rgb(0,0,0)" stroke-width="2" />
<path fill="rgb(176,176,255)" stroke="rgb(64,0,64)" stroke-width="2" d=" M 1211 491 L 1231 491 1231 531 1211 531 1211 491 Z" />
<path fill="rgb(176,176,255)" stroke="rgb(64,0,64)" stroke-width="2" d=" M 1191 491 L 1211 491 1211 531 1191 531 1191 491 Z" />
<path fill="rgb(176,176,255)" stroke="rgb(64,0,64)" stroke-width="2" d=" M 1171 491 L 1191 491 1191 531 1171 531 1171 491 Z" />
<path fill="rgb(176,176,255)" stroke="rgb(64,0,64)" stroke-width="2" d=" M 1151 491 L 1171 491 1171 531 1151 531 1151 491 Z" />
<polyline points="1041.00 441.00 1021.00 441.00 1021.00 491.00" fill="none" stroke="rgb(255,0,0)" stroke-width="4" />
<polyline points="1141.00 441.00 1121.00 441.00 1121.00 491.00" fill="none" stroke="rgb(0,0,0)" stroke-width="4" />
<polyline points="1241.00 441.00 1221.00 441.00 1221.00 491.00" fill="none" stroke="rgb(255,255,0)" stroke-width="4" />
<path fill="rgb(64,0,64)" stroke="rgb(64,0,64)" stroke-width="2" d=" M 641 41 L 791 41 791 81 641 81 641 41 Z" />
<path fill="rgb(192,192,192)" stroke="rgb(64,0,64)" stroke-width="2" d=" M 491 41 L 641 41 641 81 491 81 491 41 Z" />
<polyline points="791.00 61.00 1101.00 61.00 1101.00 491.00" fill="none" stroke="rgb(0,0,0)" stroke-width="4" />
<polyline points="791.00 51.00 1201.00 51.00 1201.00 491.00" fill="none" stroke="rgb(255,255,0)" stroke-width="4" />
<polyline points="791.00 71.00 1001.00 71.00 1001.00 491.00" fill="none" stroke="rgb(255,0,0)" stroke-width="4" />
<path fill="rgb(64,0,64)" stroke="rgb(64,0,64)" stroke-width="2" d=" M 641 141 L 791 141 791 181 641 181 641 141 Z" />
<path fill="rgb(192,192,192)" stroke="rgb(64,0,64)" stroke-width="2" d=" M 491 141 L 641 141 641 181 491 181 491 141 Z" />
<path fill="rgb(64,0,64)" stroke="rgb(64,0,64)" stroke-width="2" d=" M 641 241 L 791 241 791 281 641 281 641 241 Z" />
<path fill="rgb(192,192,192)" stroke="rgb(64,0,64)" stroke-width="2" d=" M 491 241 L 641 241 641 281 491 281 491 241 Z" />
<polyline points="791.00 171.00 981.00 171.00 981.00 491.00" fill="none" stroke="rgb(255,0,0)" stroke-width="4" />
<polyline points="791.00 271.00 961.00 271.00 961.00 491.00" fill="none" stroke="rgb(255,0,0)" stroke-width="4" />
<polyline points="791.00 151.00 1181.00 151.00 1181.00 491.00" fill="none" stroke="rgb(255,255,0)" stroke-width="4" />
<polyline points="791.00 251.00 1161.00 251.00 1161.00 491.00" fill="none" stroke="rgb(255,255,0)" stroke-width="4" />
<polyline points="791.00 161.00 1081.00 161.00 1081.00 491.00" fill="none" stroke="rgb(64,0,64)" stroke-width="4" />
<polyline points="791.00 261.00 1061.00 261.00 1061.00 491.00" fill="none" stroke="rgb(64,0,64)" stroke-width="4" />
<path fill="rgb(0,0,0)" stroke="rgb(0,0,0)" stroke-width="0" d=" M 301.36 73.00 L 291.20 47.40 294.62 47.40 301.42 65.84 301.74 66.72 302.04 67.57 302.32 68.40 302.57 69.21 302.81 70.00 303.05 69.17 303.31 68.34 303.58 67.50 303.87 66.67 304.17 65.84 311.02 47.40 314.45 47.40 304.67 73.00 Z M 316.21 63.60 L 316.32 61.63 316.66 59.87 317.21 58.32 317.99 56.99 318.99 55.88 319.95 55.13 321.00 54.55 322.13 54.13 323.34 53.88 324.62 53.80 326.05 53.90 327.37 54.21 328.58 54.71 329.68 55.42 330.67 56.33 331.51 57.43 332.17 58.67 332.64 60.07 332.92 61.63 333.01 63.34 332.97 64.72 332.84 65.99 332.63 67.12 332.34 68.14 331.97 69.03 331.51 69.82 330.98 70.54 330.38 71.19 329.70 71.76 328.94 72.25 328.13 72.67 327.29 72.99 326.43 73.22 325.53 73.35 324.61 73.40 323.16 73.30 321.83 73.00 320.61 72.49 319.51 71.78 318.52 70.88 317.69 69.78 317.04 68.50 316.58 67.04 316.30 65.41 316.21 63.60 Z M 319.41 63.59 L 319.47 64.85 319.64 65.98 319.94 66.97 320.35 67.83 320.88 68.55 321.51 69.15 322.19 69.61 322.93 69.94 323.74 70.13 324.61 70.20 325.47 70.13 326.27 69.93 327.01 69.60 327.70 69.14 328.32 68.54 328.86 67.81 329.27 66.94 329.57 65.93 329.75 64.78 329.81 63.49 329.75 62.28 329.57 61.18 329.28 60.21 328.86 59.37 328.32 58.65 327.70 58.05 327.02 57.59 326.28 57.26 325.48 57.07 324.62 57.00 323.76 57.07 322.95 57.26 322.21 57.59 321.52 58.05 320.90 58.64 320.36 59.36 319.95 60.22 319.65 61.21 319.47 62.34 319.41 63.59 Z M 336.60 73.00 L 336.62 54.20 339.42 54.20 339.42 56.98 339.84 56.26 340.25 55.64 340.65 55.13 341.03 54.72 341.41 54.42 341.78 54.20 342.16 54.02 342.56 53.90 342.98 53.82 343.41 53.80 344.04 53.84 344.68 53.96 345.32 54.16 345.97 54.43 346.62 54.79 345.55 57.66 345.10 57.42 344.65 57.24 344.20 57.11 343.75 57.03 343.30 57.00 342.91 57.03 342.53 57.10 342.16 57.23 341.82 57.40 341.49 57.63 341.18 57.90 340.92 58.21 340.68 58.56 340.49 58.95 340.33 59.38 340.14 60.08 340.00 60.80 339.90 61.55 339.83 62.32 339.81 63.12 339.80 73.00 Z M 348.60 73.00 L 348.62 47.40 351.82 47.40 351.80 73.00 Z M 368.60 70.60 L 367.99 71.18 367.38 71.68 366.76 72.12 366.13 72.48 365.50 72.77 364.85 73.00 364.18 73.17 363.50 73.30 362.79 73.37 362.07 73.40 360.91 73.34 359.87 73.16 358.94 72.85 358.13 72.43 357.42 71.88 356.84 71.24 356.38 70.53 356.06 69.75 355.87 68.91 355.81 68.00 355.83 67.45 355.90 66.93 356.03 66.42 356.20 65.94 356.42 65.47 356.68 65.03 356.97 64.63 357.29 64.26 357.65 63.93 358.03 63.63 358.44 63.37 358.87 63.13 359.32 62.92 359.79 62.74 360.27 62.58 360.68 62.48 361.16 62.38 361.71 62.29 362.34 62.19 363.04 62.10 364.47 61.91 365.74 61.70 366.85 61.48 367.80 61.25 368.59 61.00 368.60 60.79 368.61 60.62 368.61 60.47 368.61 60.36 368.61 60.29 368.58 59.66 368.47 59.11 368.30 58.63 368.05 58.24 367.74 57.93 367.22 57.59 366.60 57.33 365.89 57.15 365.09 57.04 364.20 57.00 363.37 57.02 362.63 57.10 361.98 57.22 361.42 57.39 360.96 57.62 360.56 57.90 360.21 58.26 359.90 58.70 359.63 59.21 359.41 59.80 356.21 59.40 356.40 58.65 356.64 57.97 356.92 57.35 357.24 56.78 357.60 56.28 358.02 55.82 358.51 55.41 359.07 55.05 359.70 54.72 360.39 54.44 361.14 54.21 361.94 54.03 362.78 53.90 363.68 53.83 364.61 53.80 365.53 53.82 366.38 53.89 367.15 54.00 367.86 54.16 368.49 54.37 369.06 54.61 369.56 54.87 369.99 55.16 370.37 55.46 370.68 55.80 370.94 56.16 371.17 56.56 371.37 56.99 371.53 57.46 371.66 57.97 371.72 58.34 371.76 58.81 371.79 59.37 371.81 60.02 371.81 60.77 371.81 64.75 371.81 66.30 371.83 67.63 371.86 68.75 371.91 69.64 371.97 70.31 372.04 70.87 372.14 71.41 372.27 71.95 372.42 72.48 372.60 73.00 369.40 73.00 369.17 72.58 368.97 72.12 368.81 71.64 368.69 71.14 368.60 70.60 Z M 368.61 64.20 L 367.85 64.42 366.96 64.63 365.92 64.83 364.75 65.01 363.44 65.18 362.71 65.28 362.07 65.38 361.52 65.48 361.06 65.59 360.69 65.70 360.38 65.83 360.10 65.97 359.85 66.14 359.63 66.33 359.44 66.54 359.29 66.77 359.16 67.01 359.08 67.25 359.02 67.51 359.01 67.78 359.04 68.18 359.16 68.55 359.35 68.90 359.61 69.21 359.96 69.51 360.37 69.76 360.86 69.95 361.42 70.09 362.05 70.17 362.75 70.20 363.46 70.17 364.14 70.08 364.79 69.92 365.41 69.71 365.99 69.43 366.53 69.12 367.01 68.77 367.43 68.40 367.78 68.00 368.08 67.58 368.26 67.21 368.41 66.78 368.51 66.29 368.57 65.73 368.59 65.11 Z M 388.20 73.00 L 388.21 69.77 387.29 71.08 386.26 72.09 385.10 72.82 383.82 73.25 382.42 73.40 381.79 73.37 381.17 73.30 380.57 73.17 379.98 72.99 379.42 72.76 378.89 72.49 378.41 72.20 378.00 71.88 377.64 71.53 377.34 71.16 377.09 70.76 376.86 70.32 376.67 69.85 376.52 69.35 376.39 68.81 376.33 68.39 376.27 67.88 376.24 67.29 376.21 66.60 376.21 65.83 376.22 54.20 379.42 54.20 379.41 64.32 379.41 65.23 379.44 66.01 379.48 66.66 379.53 67.19 379.60 67.59 379.75 68.05 379.95 68.48 380.20 68.86 380.50 69.20 380.86 69.50 381.27 69.75 381.71 69.95 382.18 70.09 382.69 70.17 383.24 70.20 383.81 70.17 384.36 70.09 384.89 69.94 385.41 69.74 385.92 69.49 386.39 69.18 386.80 68.83 387.16 68.45 387.45 68.02 387.69 67.55 387.87 67.01 388.02 66.39 388.13 65.67 388.19 64.87 388.21 63.98 388.22 54.20 391.42 54.20 391.40 73.00 Z M 396.60 73.00 L 396.62 57.40 393.82 57.40 393.82 54.20 396.62 54.20 396.62 52.31 396.63 51.62 396.68 51.02 396.75 50.48 396.84 50.02 396.96 49.64 397.18 49.19 397.45 48.77 397.78 48.39 398.16 48.04 398.60 47.73 399.10 47.47 399.68 47.26 400.32 47.12 401.04 47.03 401.82 47.00 402.36 47.01 402.92 47.06 403.51 47.13 404.11 47.22 404.74 47.35 404.27 50.35 403.89 50.30 403.51 50.25 403.14 50.22 402.78 50.21 402.43 50.20 401.89 50.22 401.42 50.28 401.02 50.39 400.69 50.54 400.42 50.73 400.20 50.98 400.04 51.30 399.92 51.70 399.84 52.17 399.82 52.71 399.82 54.20 403.42 54.20 403.42 57.40 399.82 57.40 399.80 73.00 Z" />
<path fill="rgb(0,0,0)" stroke="rgb(0,0,0)" stroke-width="0" d=" M 293.80 173.00 L 293.83 147.40 304.86 147.40 306.14 147.43 307.29 147.51 308.32 147.65 309.21 147.84 309.98 148.09 310.65 148.41 311.27 148.81 311.83 149.30 312.33 149.88 312.77 150.53 313.15 151.25 313.44 152.00 313.65 152.77 313.78 153.57 313.82 154.41 313.75 155.47 313.54 156.46 313.19 157.38 312.71 158.23 312.08 159.02 311.31 159.71 310.39 160.30 309.32 160.78 308.09 161.14 306.72 161.40 307.18 161.68 307.59 161.95 307.95 162.23 308.27 162.50 308.54 162.77 309.06 163.37 309.58 164.00 310.10 164.66 310.62 165.34 311.12 166.06 315.39 173.00 311.67 173.00 308.34 167.69 307.78 166.82 307.26 166.03 306.78 165.33 306.34 164.71 305.94 164.18 305.57 163.72 305.22 163.33 304.88 163.00 304.56 162.73 304.25 162.52 303.95 162.36 303.65 162.21 303.35 162.09 303.04 161.99 302.73 161.91 302.48 161.87 302.16 161.84 301.79 161.82 301.36 161.80 300.88 161.80 297.01 161.80 297.00 173.00 Z M 297.01 158.60 L 304.17 158.60 305.05 158.58 305.86 158.53 306.59 158.44 307.25 158.31 307.83 158.15 308.35 157.94 308.82 157.70 309.24 157.41 309.60 157.07 309.91 156.70 310.16 156.29 310.36 155.87 310.51 155.44 310.59 154.99 310.62 154.52 310.56 153.86 310.40 153.25 310.13 152.69 309.75 152.17 309.27 151.71 308.67 151.31 307.94 151.00 307.08 150.78 306.10 150.64 304.99 150.60 297.02 150.60 Z M 331.00 173.00 L 331.01 169.77 330.09 171.08 329.06 172.09 327.90 172.82 326.62 173.25 325.22 173.40 324.59 173.37 323.97 173.30 323.37 173.17 322.78 172.99 322.22 172.76 321.69 172.49 321.21 172.20 320.80 171.88 320.44 171.53 320.14 171.16 319.89 170.76 319.66 170.32 319.47 169.85 319.32 169.35 319.19 168.81 319.13 168.39 319.07 167.88 319.04 167.29 319.01 166.60 319.01 165.83 319.02 154.20 322.22 154.20 322.21 164.32 322.21 165.23 322.24 166.01 322.28 166.66 322.33 167.19 322.40 167.59 322.55 168.05 322.75 168.48 323.00 168.86 323.30 169.20 323.66 169.50 324.07 169.75 324.51 169.95 324.98 170.09 325.49 170.17 326.04 170.20 326.61 170.17 327.16 170.09 327.69 169.94 328.21 169.74 328.72 169.49 329.19 169.18 329.60 168.84 329.96 168.45 330.25 168.02 330.49 167.55 330.67 167.01 330.82 166.39 330.93 165.67 330.99 164.87 331.01 163.98 331.02 154.20 334.22 154.20 334.20 173.00 Z M 321.42 152.20 L 321.42 149.00 324.62 149.00 324.62 152.20 Z M 327.82 152.20 L 327.82 149.00 331.02 149.00 331.02 152.20 Z M 350.61 166.20 L 353.81 166.60 353.54 167.82 353.15 168.93 352.64 169.93 352.00 170.82 351.23 171.60 350.37 172.25 349.43 172.75 348.41 173.11 347.32 173.33 346.16 173.40 344.71 173.30 343.37 173.00 342.16 172.49 341.07 171.79 340.09 170.88 339.27 169.79 338.63 168.52 338.17 167.08 337.90 165.46 337.81 163.67 337.85 162.48 337.97 161.36 338.17 160.30 338.44 159.29 338.79 158.35 339.23 157.49 339.74 156.71 340.34 156.03 341.02 155.44 341.78 154.94 342.59 154.53 343.44 154.21 344.31 153.98 345.21 153.85 346.13 153.80 347.28 153.86 348.34 154.05 349.31 154.36 350.20 154.80 351.00 155.36 351.70 156.04 352.29 156.82 352.77 157.71 353.15 158.70 353.41 159.80 350.21 160.20 350.02 159.59 349.77 159.05 349.48 158.57 349.13 158.16 348.73 157.80 348.29 157.51 347.81 157.29 347.29 157.13 346.74 157.03 346.16 157.00 345.28 157.06 344.47 157.25 343.72 157.57 343.05 158.01 342.44 158.58 341.93 159.29 341.53 160.14 341.24 161.14 341.07 162.29 341.01 163.58 341.07 164.90 341.23 166.06 341.51 167.07 341.90 167.92 342.40 168.63 342.99 169.19 343.65 169.63 344.38 169.95 345.18 170.14 346.05 170.20 346.75 170.16 347.40 170.04 348.00 169.85 348.56 169.57 349.07 169.22 349.52 168.78 349.90 168.26 350.20 167.66 350.44 166.97 350.61 166.20 Z M 356.60 173.00 L 356.62 147.40 359.82 147.40 359.81 161.16 366.99 154.20 371.42 154.20 364.15 161.24 371.80 173.00 368.06 173.00 361.86 163.47 359.81 165.45 359.80 173.00 Z M 374.60 173.00 L 374.62 147.40 377.82 147.40 377.80 173.00 Z M 394.60 170.60 L 393.99 171.18 393.38 171.68 392.76 172.12 392.13 172.48 391.50 172.77 390.85 173.00 390.18 173.17 389.50 173.30 388.79 173.37 388.07 173.40 386.91 173.34 385.87 173.16 384.94 172.85 384.13 172.43 383.42 171.88 382.84 171.24 382.38 170.53 382.06 169.76 381.87 168.91 381.81 168.00 381.83 167.45 381.90 166.93 382.03 166.42 382.20 165.94 382.42 165.47 382.68 165.03 382.97 164.63 383.29 164.26 383.65 163.93 384.03 163.63 384.44 163.37 384.87 163.13 385.32 162.92 385.79 162.74 386.27 162.58 386.68 162.48 387.16 162.38 387.71 162.29 388.34 162.19 389.04 162.10 390.47 161.91 391.74 161.70 392.85 161.48 393.80 161.25 394.59 161.00 394.60 160.79 394.61 160.62 394.61 160.47 394.61 160.36 394.61 160.29 394.58 159.66 394.47 159.11 394.30 158.63 394.05 158.24 393.74 157.93 393.22 157.59 392.60 157.33 391.89 157.15 391.09 157.04 390.20 157.00 389.37 157.02 388.63 157.10 387.98 157.22 387.42 157.39 386.96 157.62 386.56 157.90 386.21 158.26 385.90 158.70 385.63 159.21 385.41 159.80 382.21 159.40 382.40 158.65 382.64 157.97 382.92 157.35 383.24 156.78 383.60 156.27 384.02 155.82 384.51 155.41 385.07 155.05 385.70 154.72 386.39 154.44 387.14 154.21 387.94 154.03 388.78 153.90 389.68 153.83 390.61 153.80 391.53 153.82 392.38 153.89 393.15 154.00 393.86 154.16 394.49 154.37 395.06 154.61 395.56 154.87 395.99 155.16 396.37 155.46 396.68 155.80 396.94 156.16 397.17 156.56 397.37 156.99 397.53 157.46 397.66 157.97 397.72 158.34 397.76 158.81 397.79 159.37 397.81 160.02 397.81 160.77 397.81 164.75 397.81 166.30 397.83 167.63 397.86 168.75 397.91 169.64 397.97 170.31 398.04 170.87 398.14 171.41 398.27 171.95 398.42 172.48 398.60 173.00 395.40 173.00 395.17 172.58 394.97 172.12 394.81 171.64 394.69 171.14 394.60 170.60 Z M 394.61 164.20 L 393.85 164.42 392.96 164.63 391.92 164.83 390.75 165.01 389.44 165.18 388.71 165.28 388.07 165.38 387.52 165.48 387.06 165.59 386.69 165.70 386.38 165.83 386.10 165.97 385.85 166.14 385.63 166.33 385.44 166.54 385.29 166.77 385.16 167.01 385.08 167.25 385.02 167.51 385.01 167.77 385.04 168.18 385.16 168.55 385.35 168.90 385.61 169.21 385.96 169.51 386.37 169.76 386.86 169.95 387.42 170.09 388.05 170.17 388.75 170.20 389.46 170.17 390.14 170.08 390.79 169.92 391.41 169.71 391.99 169.43 392.53 169.12 393.01 168.77 393.43 168.40 393.78 168.00 394.08 167.58 394.26 167.21 394.41 166.78 394.51 166.29 394.57 165.73 394.59 165.11 Z M 414.20 173.00 L 414.21 169.77 413.29 171.08 412.26 172.09 411.10 172.82 409.82 173.25 408.42 173.40 407.79 173.37 407.17 173.30 406.57 173.17 405.98 172.99 405.42 172.76 404.89 172.49 404.41 172.20 404.00 171.88 403.64 171.53 403.34 171.16 403.09 170.76 402.86 170.32 402.67 169.85 402.52 169.35 402.39 168.81 402.33 168.39 402.27 167.88 402.24 167.29 402.21 166.60 402.21 165.83 402.22 154.20 405.42 154.20 405.41 164.32 405.41 165.23 405.44 166.01 405.48 166.66 405.53 167.19 405.60 167.59 405.75 168.05 405.95 168.48 406.20 168.86 406.50 169.20 406.86 169.50 407.27 169.75 407.71 169.95 408.18 170.09 408.69 170.17 409.24 170.20 409.81 170.17 410.36 170.09 410.89 169.94 411.41 169.74 411.92 169.49 412.39 169.18 412.80 168.84 413.16 168.45 413.45 168.02 413.69 167.55 413.87 167.01 414.02 166.39 414.13 165.67 414.19 164.87 414.21 163.98 414.22 154.20 417.42 154.20 417.40 173.00 Z M 422.60 173.00 L 422.62 157.40 419.82 157.40 419.82 154.20 422.62 154.20 422.62 152.31 422.63 151.62 422.68 151.02 422.75 150.48 422.84 150.02 422.96 149.64 423.18 149.19 423.45 148.77 423.78 148.39 424.16 148.04 424.60 147.73 425.10 147.47 425.68 147.26 426.32 147.12 427.04 147.03 427.82 147.00 428.36 147.01 428.92 147.06 429.51 147.13 430.11 147.22 430.74 147.35 430.27 150.35 429.89 150.30 429.51 150.25 429.14 150.22 428.78 150.21 428.43 150.20 427.89 150.22 427.42 150.29 427.02 150.39 426.69 150.54 426.42 150.73 426.20 150.98 426.04 151.30 425.92 151.70 425.84 152.17 425.82 152.71 425.82 154.20 429.42 154.20 429.42 157.40 425.82 157.40 425.80 173.00 Z" />
<path fill="rgb(0,0,0)" stroke="rgb(0,0,0)" stroke-width="0" d=" M 292.61 264.20 L 295.81 264.20 295.92 264.95 296.08 265.65 296.28 266.29 296.54 266.87 296.84 267.40 297.20 267.89 297.63 268.33 298.13 268.73 298.71 269.10 299.35 269.43 300.05 269.71 300.78 269.92 301.55 270.08 302.35 270.17 303.19 270.20 303.93 270.18 304.63 270.11 305.30 269.99 305.94 269.83 306.53 269.62 307.09 269.36 307.58 269.08 308.01 268.76 308.38 268.40 308.70 268.01 308.95 267.60 309.15 267.18 309.29 266.75 309.38 266.31 309.41 265.86 309.39 265.42 309.32 264.99 309.22 264.59 309.07 264.22 308.88 263.87 308.62 263.53 308.28 263.22 307.84 262.93 307.32 262.66 306.71 262.41 306.18 262.24 305.46 262.03 304.52 261.78 303.39 261.50 302.05 261.19 300.69 260.86 299.51 260.54 298.51 260.23 297.68 259.92 297.03 259.61 296.34 259.21 295.72 258.77 295.18 258.29 294.71 257.78 294.31 257.23 293.99 256.65 293.74 256.04 293.56 255.40 293.45 254.74 293.42 254.05 293.47 253.29 293.60 252.54 293.82 251.82 294.13 251.11 294.53 250.43 295.02 249.79 295.59 249.21 296.23 248.70 296.96 248.25 297.77 247.87 298.65 247.56 299.56 247.31 300.51 247.14 301.49 247.03 302.52 247.00 303.64 247.04 304.71 247.15 305.72 247.33 306.68 247.58 307.58 247.91 308.42 248.31 309.17 248.78 309.85 249.32 310.44 249.92 310.95 250.59 311.38 251.32 311.72 252.08 311.97 252.89 312.14 253.72 312.22 254.60 309.02 254.60 308.86 253.77 308.60 253.03 308.24 252.37 307.77 251.80 307.21 251.31 306.53 250.91 305.74 250.60 304.83 250.38 303.79 250.24 302.64 250.20 301.45 250.24 300.40 250.38 299.48 250.60 298.70 250.90 298.06 251.30 297.54 251.76 297.14 252.25 296.85 252.78 296.68 253.35 296.62 253.96 296.66 254.48 296.78 254.96 296.99 255.40 297.27 255.81 297.64 256.17 298.17 256.53 298.95 256.88 300.00 257.24 301.30 257.60 302.86 257.96 304.44 258.32 305.79 258.66 306.92 258.98 307.83 259.28 308.52 259.57 309.31 260.00 310.02 260.48 310.64 260.99 311.17 261.56 311.62 262.16 311.97 262.81 312.25 263.49 312.45 264.22 312.57 264.98 312.61 265.78 312.56 266.58 312.42 267.37 312.19 268.13 311.87 268.88 311.46 269.61 310.96 270.30 310.38 270.92 309.72 271.48 308.97 271.97 308.15 272.40 307.27 272.76 306.35 273.04 305.38 273.24 304.37 273.36 303.31 273.40 301.99 273.36 300.76 273.23 299.62 273.01 298.56 272.71 297.60 272.33 296.72 271.85 295.91 271.29 295.19 270.64 294.55 269.91 293.98 269.09 293.51 268.20 293.14 267.27 292.86 266.29 292.68 265.27 292.61 264.20 Z M 316.99 280.20 L 317.02 254.20 320.22 254.20 320.22 257.34 320.62 256.67 321.04 256.06 321.49 255.53 321.95 255.07 322.43 254.68 322.94 254.37 323.50 254.12 324.10 253.94 324.74 253.84 325.42 253.80 326.32 253.85 327.17 254.00 327.98 254.25 328.75 254.59 329.48 255.04 330.14 255.57 330.74 256.19 331.27 256.89 331.73 257.67 332.12 258.52 332.44 259.44 332.69 260.39 332.87 261.38 332.98 262.40 333.01 263.46 332.97 264.59 332.85 265.67 332.64 266.71 332.36 267.70 331.99 268.64 331.55 269.52 331.04 270.31 330.45 271.02 329.79 271.64 329.06 272.17 328.28 272.61 327.49 272.96 326.68 273.20 325.85 273.35 325.01 273.40 324.41 273.37 323.82 273.27 323.27 273.10 322.73 272.87 322.23 272.58 321.75 272.23 321.31 271.85 320.91 271.44 320.54 270.99 320.20 270.50 320.19 280.20 Z M 320.21 263.75 L 320.27 265.00 320.43 266.11 320.70 267.09 321.09 267.93 321.59 268.62 322.16 269.19 322.79 269.63 323.46 269.95 324.18 270.14 324.94 270.20 325.72 270.13 326.45 269.94 327.14 269.61 327.78 269.16 328.38 268.57 328.89 267.84 329.29 266.98 329.58 265.97 329.75 264.81 329.81 263.51 329.76 262.27 329.59 261.16 329.31 260.19 328.92 259.34 328.42 258.62 327.84 258.04 327.22 257.58 326.56 257.26 325.85 257.07 325.09 257.00 324.34 257.07 323.63 257.28 322.95 257.62 322.30 258.11 321.69 258.73 321.16 259.48 320.75 260.36 320.45 261.37 320.27 262.50 320.21 263.75 Z M 349.77 267.40 L 352.91 267.80 352.53 268.82 352.05 269.74 351.46 270.57 350.77 271.30 349.97 271.93 349.06 272.46 348.06 272.87 346.97 273.17 345.78 273.34 344.50 273.40 342.89 273.30 341.43 272.99 340.10 272.49 338.91 271.78 337.86 270.87 336.98 269.77 336.29 268.51 335.80 267.09 335.51 265.50 335.41 263.76 335.51 261.95 335.81 260.31 336.31 258.84 337.00 257.54 337.90 256.41 338.95 255.47 340.12 254.74 341.41 254.22 342.81 253.90 344.34 253.80 345.81 253.90 347.17 254.22 348.42 254.74 349.56 255.47 350.59 256.41 351.46 257.53 352.14 258.83 352.62 260.30 352.92 261.93 353.01 263.74 353.01 263.86 353.01 264.01 353.00 264.19 353.00 264.38 352.99 264.60 338.61 264.60 338.74 265.63 338.99 266.57 339.36 267.40 339.84 268.13 340.44 268.76 341.14 269.28 341.89 269.68 342.72 269.97 343.61 270.14 344.56 270.20 345.28 270.17 345.95 270.09 346.58 269.96 347.16 269.77 347.70 269.53 348.20 269.23 348.66 268.87 349.07 268.44 349.44 267.95 349.77 267.40 Z M 338.61 261.40 L 349.81 261.40 349.69 260.67 349.50 260.01 349.24 259.43 348.92 258.93 348.53 258.50 347.85 257.96 347.08 257.54 346.24 257.24 345.32 257.06 344.33 257.00 343.42 257.05 342.57 257.19 341.78 257.43 341.05 257.77 340.38 258.20 339.80 258.71 339.33 259.28 338.98 259.92 338.74 260.63 338.61 261.40 Z M 356.23 250.60 L 356.23 247.40 359.43 247.40 359.43 250.60 Z M 356.20 273.00 L 356.22 254.20 359.42 254.20 359.40 273.00 Z M 376.21 266.20 L 379.41 266.60 379.14 267.82 378.75 268.93 378.24 269.93 377.60 270.82 376.83 271.60 375.97 272.25 375.03 272.75 374.01 273.11 372.92 273.33 371.76 273.40 370.31 273.30 368.97 273.00 367.76 272.49 366.67 271.79 365.69 270.88 364.87 269.79 364.23 268.52 363.77 267.08 363.50 265.46 363.41 263.67 363.45 262.48 363.57 261.36 363.77 260.30 364.04 259.29 364.39 258.35 364.83 257.49 365.34 256.71 365.94 256.03 366.62 255.44 367.38 254.94 368.19 254.53 369.04 254.21 369.91 253.98 370.81 253.85 371.73 253.80 372.88 253.86 373.94 254.05 374.91 254.36 375.80 254.80 376.60 255.36 377.30 256.04 377.89 256.82 378.37 257.71 378.75 258.70 379.01 259.80 375.81 260.20 375.62 259.59 375.37 259.05 375.08 258.57 374.73 258.16 374.33 257.80 373.89 257.51 373.41 257.29 372.89 257.13 372.34 257.03 371.76 257.00 370.88 257.06 370.07 257.25 369.32 257.57 368.65 258.01 368.04 258.58 367.53 259.29 367.13 260.14 366.84 261.14 366.67 262.29 366.61 263.58 366.67 264.90 366.83 266.06 367.11 267.07 367.50 267.92 368.00 268.63 368.59 269.19 369.25 269.63 369.98 269.95 370.78 270.14 371.65 270.20 372.35 270.16 373.00 270.04 373.60 269.85 374.16 269.57 374.67 269.22 375.12 268.78 375.50 268.26 375.80 267.66 376.04 266.97 376.21 266.20 Z M 382.20 273.00 L 382.23 247.40 385.43 247.40 385.42 256.81 386.35 255.73 387.37 254.88 388.48 254.28 389.69 253.92 390.99 253.80 391.79 253.83 392.56 253.93 393.27 254.10 393.95 254.33 394.58 254.62 395.16 254.98 395.66 255.38 396.10 255.83 396.46 256.34 396.76 256.89 396.99 257.53 397.18 258.26 397.31 259.10 397.39 260.05 397.41 261.10 397.40 273.00 394.20 273.00 394.21 261.43 394.17 260.55 394.05 259.78 393.85 259.10 393.56 258.53 393.20 258.06 392.76 257.68 392.25 257.38 391.67 257.17 391.03 257.04 390.31 257.00 389.76 257.03 389.22 257.11 388.70 257.26 388.19 257.46 387.69 257.71 387.22 258.02 386.82 258.36 386.47 258.75 386.17 259.18 385.93 259.64 385.75 260.17 385.60 260.77 385.50 261.44 385.43 262.19 385.41 263.01 385.40 273.00 Z M 414.97 267.40 L 418.11 267.80 417.73 268.82 417.25 269.74 416.66 270.57 415.97 271.30 415.17 271.93 414.26 272.46 413.26 272.87 412.17 273.17 410.98 273.34 409.70 273.40 408.09 273.30 406.63 272.99 405.30 272.49 404.11 271.78 403.06 270.87 402.18 269.77 401.49 268.51 401.00 267.09 400.71 265.50 400.61 263.76 400.71 261.95 401.01 260.31 401.51 258.84 402.20 257.54 403.10 256.41 404.15 255.47 405.32 254.74 406.61 254.22 408.01 253.90 409.54 253.80 411.01 253.90 412.37 254.22 413.62 254.74 414.76 255.47 415.79 256.41 416.66 257.53 417.34 258.83 417.82 260.30 418.12 261.93 418.21 263.74 418.21 263.86 418.21 264.01 418.20 264.19 418.20 264.38 418.19 264.60 403.81 264.60 403.94 265.63 404.19 266.57 404.56 267.40 405.04 268.13 405.64 268.76 406.34 269.28 407.09 269.68 407.92 269.97 408.81 270.14 409.76 270.20 410.48 270.17 411.15 270.09 411.78 269.96 412.36 269.77 412.90 269.53 413.40 269.23 413.86 268.87 414.27 268.44 414.64 267.95 414.97 267.40 Z M 403.81 261.40 L 415.01 261.40 414.89 260.67 414.70 260.01 414.44 259.43 414.12 258.93 413.73 258.50 413.05 257.96 412.28 257.54 411.44 257.24 410.52 257.06 409.53 257.00 408.62 257.05 407.77 257.19 406.98 257.43 406.25 257.77 405.58 258.20 405.00 258.71 404.53 259.28 404.18 259.92 403.94 260.63 403.81 261.40 Z M 421.40 273.00 L 421.42 254.20 424.22 254.20 424.22 256.98 424.64 256.26 425.05 255.64 425.45 255.13 425.83 254.72 426.21 254.42 426.58 254.20 426.96 254.02 427.36 253.90 427.78 253.82 428.21 253.80 428.84 253.84 429.48 253.96 430.12 254.16 430.77 254.43 431.42 254.79 430.35 257.66 429.90 257.42 429.45 257.24 429.00 257.11 428.55 257.03 428.10 257.00 427.71 257.03 427.33 257.10 426.96 257.23 426.62 257.40 426.29 257.63 425.98 257.90 425.72 258.21 425.48 258.56 425.29 258.95 425.13 259.38 424.94 260.08 424.80 260.80 424.70 261.55 424.63 262.32 424.61 263.12 424.60 273.00 Z" />
<path fill="none" stroke="rgb(255,255,255)" stroke-width="2" d=" M 641 681 L 731 681 731 699 641 699 641 681 Z" />
<path fill="none" stroke="rgb(255,255,255)" stroke-width="2" d=" M 641 681 L 659 681 659 699 641 699 641 681 Z" />
<path fill="none" stroke="rgb(255,255,255)" stroke-width="2" d=" M 659 681 L 677 681 677 699 659 699 659 681 Z" />
<path fill="none" stroke="rgb(255,255,255)" stroke-width="2" d=" M 677 681 L 695 681 695 699 677 699 677 681 Z" />
<path fill="none" stroke="rgb(255,255,255)" stroke-width="2" d=" M 695 681 L 713 681 713 699 695 699 695 681 Z" />
<path fill="none" stroke="rgb(255,255,255)" stroke-width="2" d=" M 713 681 L 731 681 731 699 713 699 713 681 Z" />
<circle cx="650" cy="690" r="6" fill="rgb(255,255,255)" stroke="none" stroke-width="2" />
<circle cx="668" cy="690" r="6" fill="rgb(255,255,255)" stroke="none" stroke-width="2" />
<circle cx="686" cy="690" r="6" fill="rgb(255,255,255)" stroke="none" stroke-width="2" />
<circle cx="704" cy="690" r="6" fill="rgb(255,255,255)" stroke="none" stroke-width="2" />
<circle cx="722" cy="690" r="6" fill="rgb(255,255,255)" stroke="none" stroke-width="2" />
<circle cx="181.35" cy="581.00" r="140.35" fill="rgb(79,79,255)" stroke="rgb(0,0,0)" stroke-width="2" />
<path fill="rgb(102,102,255)" stroke="rgb(0,0,0)" stroke-width="2" d=" M 101 481 L 261 481 261 511 101 511 101 481 Z" />
<circle cx="121.02" cy="491.00" r="10.02" fill="rgb(211,211,211)" stroke="rgb(0,0,0)" stroke-width="2" />
<circle cx="151.02" cy="491.00" r="10.02" fill="rgb(216,216,216)" stroke="rgb(0,0,0)" stroke-width="2" />
<circle cx="181.02" cy="491.00" r="10.02" fill="rgb(215,215,215)" stroke="rgb(0,0,0)" stroke-width="2" />
<circle cx="211.02" cy="491.00" r="10.02" fill="rgb(212,212,212)" stroke="rgb(0,0,0)" stroke-width="2" />
<circle cx="241.02" cy="491.00" r="10.02" fill="rgb(224,224,224)" stroke="rgb(0,0,0)" stroke-width="2" />
<polyline points="111.00 491.00 131.00 491.00" fill="none" stroke="rgb(0,0,0)" stroke-width="2" />
<polyline points="151.00 481.00 151.00 501.00" fill="none" stroke="rgb(0,0,0)" stroke-width="2" />
<polyline points="171.00 491.00 191.00 491.00" fill="none" stroke="rgb(0,0,0)" stroke-width="2" />
<polyline points="211.00 481.00 211.00 501.00" fill="none" stroke="rgb(0,0,0)" stroke-width="2" />
<polyline points="241.00 481.00 241.00 501.00" fill="none" stroke="rgb(0,0,0)" stroke-width="2" />
<path fill="rgb(255,255,255)" stroke="rgb(255,255,255)" stroke-width="2" d=" M 81 431 L 281 431 281 471 81 471 81 431 Z" />
<polyline points="91.00 471.00 271.00 471.00" fill="none" stroke="rgb(0,0,0)" stroke-width="2" />
<path fill="rgb(0,0,0)" stroke="rgb(0,0,0)" stroke-width="0" d=" M 116.52 530.22 L 116.53 529.39 116.59 528.63 116.68 527.93 116.81 527.29 116.97 526.72 117.16 526.20 117.39 525.75 117.66 525.34 117.96 524.99 118.30 524.70 118.67 524.46 119.07 524.28 119.52 524.15 120.00 524.07 120.51 524.04 120.90 524.06 121.27 524.10 121.62 524.18 121.96 524.29 122.29 524.43 122.59 524.60 122.86 524.80 123.11 525.03 123.32 525.28 123.51 525.56 123.68 525.87 123.84 526.20 123.98 526.56 124.11 526.95 124.22 527.36 124.32 527.81 124.40 528.33 124.45 528.90 124.49 529.53 124.50 530.22 124.48 531.04 124.42 531.80 124.33 532.49 124.21 533.13 124.05 533.70 123.85 534.22 123.62 534.68 123.36 535.08 123.06 535.43 122.73 535.72 122.35 535.96 121.95 536.15 121.50 536.28 121.02 536.36 120.50 536.39 119.82 536.34 119.21 536.20 118.65 535.97 118.16 535.65 117.72 535.23 117.29 534.52 116.95 533.66 116.71 532.66 116.56 531.51 116.52 530.22 Z M 118.04 530.22 L 118.06 531.29 118.15 532.21 118.29 532.96 118.49 533.56 118.74 533.99 119.04 534.31 119.37 534.55 119.72 534.73 120.10 534.83 120.50 534.87 120.90 534.83 121.28 534.73 121.63 534.55 121.96 534.30 122.26 533.99 122.52 533.55 122.72 532.96 122.86 532.21 122.95 531.29 122.98 530.22 122.95 529.17 122.87 528.27 122.73 527.52 122.54 526.93 122.29 526.48 122.00 526.15 121.67 525.89 121.31 525.71 120.92 525.60 120.49 525.56 120.09 525.59 119.72 525.69 119.37 525.85 119.06 526.08 118.78 526.37 118.51 526.86 118.30 527.49 118.16 528.26 118.07 529.17 118.04 530.22 Z M 150.52 536.20 L 149.00 536.20 149.01 526.72 148.78 526.93 148.51 527.13 148.23 527.34 147.91 527.54 147.57 527.75 147.22 527.94 146.89 528.12 146.57 528.27 146.26 528.40 145.97 528.52 145.97 527.08 146.47 526.84 146.94 526.57 147.38 526.29 147.80 525.98 148.20 525.66 148.56 525.33 148.87 525.00 149.14 524.68 149.37 524.36 149.55 524.04 150.53 524.04 Z M 168.38 532.02 L 169.90 532.02 169.96 532.38 170.03 532.71 170.13 533.01 170.25 533.29 170.39 533.54 170.56 533.77 170.77 533.98 171.01 534.17 171.28 534.35 171.59 534.50 171.92 534.64 172.27 534.74 172.63 534.81 173.01 534.86 173.41 534.87 173.76 534.86 174.10 534.83 174.41 534.77 174.71 534.69 175.00 534.59 175.26 534.47 175.49 534.34 175.70 534.18 175.88 534.02 176.03 533.83 176.15 533.63 176.24 533.43 176.31 533.23 176.35 533.02 176.36 532.81 176.35 532.60 176.32 532.40 176.27 532.21 176.20 532.03 176.11 531.86 175.99 531.70 175.83 531.56 175.62 531.42 175.37 531.29 175.08 531.17 174.83 531.09 174.49 530.99 174.04 530.87 173.50 530.74 172.87 530.59 172.22 530.43 171.66 530.28 171.19 530.13 170.79 529.98 170.48 529.84 170.16 529.65 169.86 529.44 169.60 529.21 169.38 528.97 169.19 528.71 169.04 528.43 168.92 528.14 168.84 527.84 168.79 527.53 168.77 527.20 168.79 526.84 168.86 526.48 168.96 526.14 169.11 525.80 169.30 525.48 169.53 525.17 169.80 524.90 170.11 524.66 170.45 524.45 170.84 524.26 171.25 524.12 171.68 524.00 172.14 523.92 172.60 523.87 173.09 523.85 173.62 523.87 174.13 523.92 174.61 524.01 175.07 524.13 175.50 524.28 175.89 524.47 176.25 524.70 176.57 524.95 176.85 525.24 177.10 525.56 177.30 525.90 177.46 526.26 177.58 526.65 177.66 527.04 177.70 527.46 176.18 527.46 176.10 527.07 175.98 526.71 175.81 526.40 175.59 526.13 175.32 525.90 175.00 525.71 174.62 525.56 174.19 525.45 173.70 525.39 173.15 525.37 172.59 525.39 172.09 525.45 171.65 525.56 171.28 525.70 170.97 525.89 170.73 526.11 170.54 526.35 170.40 526.60 170.32 526.87 170.29 527.15 170.31 527.40 170.37 527.63 170.46 527.84 170.60 528.03 170.77 528.21 171.02 528.38 171.40 528.54 171.89 528.71 172.51 528.88 173.25 529.06 174.00 529.23 174.65 529.39 175.18 529.54 175.62 529.68 175.94 529.82 176.32 530.03 176.66 530.25 176.95 530.50 177.20 530.76 177.41 531.05 177.58 531.36 177.71 531.68 177.81 532.03 177.87 532.39 177.88 532.77 177.86 533.15 177.80 533.53 177.69 533.89 177.53 534.24 177.34 534.59 177.10 534.92 176.82 535.21 176.51 535.48 176.16 535.71 175.77 535.92 175.35 536.09 174.91 536.22 174.45 536.31 173.97 536.37 173.47 536.39 172.84 536.37 172.26 536.31 171.71 536.21 171.21 536.06 170.75 535.88 170.33 535.65 169.95 535.39 169.61 535.08 169.31 534.73 169.04 534.34 168.81 533.92 168.63 533.48 168.50 533.01 168.42 532.53 168.38 532.02 Z M 182.34 536.20 L 179.03 524.04 180.60 524.04 182.51 532.03 182.63 532.53 182.75 533.02 182.87 533.52 182.99 534.01 183.11 534.50 183.31 533.81 183.47 533.24 183.60 532.81 183.69 532.50 183.74 532.32 186.16 524.04 188.42 524.04 190.17 530.04 190.49 530.93 190.78 531.82 191.04 532.71 191.27 533.61 191.47 534.50 191.56 534.11 191.66 533.68 191.78 533.20 191.91 532.67 192.04 532.10 193.99 524.04 195.56 524.04 192.23 536.20 190.61 536.20 187.70 526.82 187.57 526.40 187.47 526.06 187.39 525.80 187.33 525.61 187.30 525.51 187.19 525.89 187.08 526.24 186.99 526.55 186.91 526.84 186.84 527.09 184.17 536.20 Z M 210.37 536.20 L 210.38 524.04 211.90 524.04 211.89 534.68 217.97 534.68 217.97 536.20 Z M 238.68 536.20 L 238.69 524.04 240.32 524.04 246.66 533.67 246.67 524.04 248.19 524.04 248.18 536.20 246.55 536.20 240.21 526.56 240.20 536.20 Z" />
<path fill="rgb(0,0,0)" stroke="rgb(0,0,0)" stroke-width="0" d=" M 210.18 558.62 L 209.68 557.99 209.22 557.32 208.79 556.61 208.39 555.85 208.02 555.05 207.71 554.23 207.46 553.40 207.28 552.55 207.18 551.69 207.15 550.82 207.17 550.06 207.25 549.30 207.38 548.56 207.57 547.84 207.81 547.12 208.15 546.31 208.56 545.49 209.04 544.67 209.58 543.85 210.19 543.04 211.33 543.04 210.93 543.68 210.59 544.23 210.30 544.72 210.08 545.12 209.91 545.45 209.70 545.90 209.51 546.36 209.34 546.82 209.19 547.30 209.05 547.78 208.91 548.39 208.80 549.00 208.73 549.61 208.68 550.22 208.67 550.83 208.77 552.39 209.09 553.95 209.62 555.51 210.36 557.06 211.32 558.62 Z M 212.08 551.59 L 212.09 550.07 216.84 550.07 216.83 551.59 Z M 218.92 558.62 L 217.78 558.62 218.74 557.06 219.48 555.51 220.02 553.95 220.34 552.39 220.45 550.83 220.43 550.22 220.39 549.62 220.31 549.01 220.20 548.41 220.07 547.81 219.94 547.32 219.79 546.85 219.62 546.38 219.43 545.92 219.22 545.47 219.05 545.14 218.83 544.73 218.54 544.25 218.20 543.68 217.79 543.04 218.93 543.04 219.54 543.85 220.08 544.67 220.56 545.49 220.97 546.31 221.31 547.12 221.55 547.84 221.73 548.56 221.86 549.30 221.94 550.06 221.97 550.82 221.93 551.69 221.82 552.55 221.64 553.40 221.39 554.23 221.07 555.05 220.70 555.85 220.30 556.61 219.87 557.32 219.41 557.99 218.92 558.62 Z M 236.78 558.62 L 236.28 557.99 235.82 557.32 235.39 556.61 234.99 555.85 234.62 555.05 234.31 554.23 234.06 553.40 233.88 552.55 233.78 551.69 233.75 550.82 233.77 550.06 233.85 549.30 233.98 548.56 234.17 547.84 234.41 547.12 234.75 546.31 235.16 545.49 235.64 544.67 236.18 543.85 236.79 543.04 237.93 543.04 237.53 543.68 237.19 544.23 236.90 544.72 236.68 545.12 236.51 545.45 236.30 545.90 236.11 546.36 235.94 546.82 235.79 547.30 235.65 547.78 235.51 548.39 235.40 549.00 235.33 549.61 235.28 550.22 235.27 550.83 235.37 552.39 235.69 553.95 236.22 555.51 236.96 557.06 237.92 558.62 Z M 242.48 553.30 L 242.49 550.07 239.26 550.07 239.26 548.55 242.49 548.55 242.49 545.32 244.01 545.32 244.01 548.55 247.24 548.55 247.24 550.07 244.01 550.07 244.00 553.30 Z M 249.70 558.62 L 248.56 558.62 249.52 557.06 250.26 555.51 250.80 553.95 251.12 552.39 251.23 550.83 251.21 550.22 251.17 549.62 251.09 549.01 250.98 548.41 250.85 547.81 250.72 547.32 250.57 546.85 250.40 546.38 250.21 545.92 250.00 545.47 249.83 545.14 249.61 544.73 249.32 544.25 248.98 543.68 248.57 543.04 249.71 543.04 250.32 543.85 250.86 544.67 251.34 545.49 251.75 546.31 252.09 547.12 252.33 547.84 252.51 548.56 252.64 549.30 252.72 550.06 252.75 550.82 252.71 551.69 252.60 552.55 252.42 553.40 252.17 554.23 251.85 555.05 251.48 555.85 251.08 556.61 250.65 557.32 250.19 557.99 249.70 558.62 Z" />
<path fill="rgb(0,0,0)" stroke="rgb(0,0,0)" stroke-width="0" d=" M 122.61 614.20 L 125.81 614.20 125.92 614.95 126.08 615.65 126.28 616.29 126.54 616.87 126.84 617.40 127.20 617.89 127.63 618.33 128.13 618.73 128.71 619.10 129.35 619.43 130.05 619.71 130.78 619.92 131.55 620.08 132.35 620.17 133.19 620.20 133.93 620.18 134.63 620.11 135.30 619.99 135.94 619.83 136.53 619.62 137.09 619.36 137.58 619.08 138.01 618.76 138.38 618.40 138.70 618.01 138.95 617.60 139.15 617.18 139.29 616.75 139.38 616.31 139.41 615.86 139.39 615.42 139.32 614.99 139.22 614.59 139.07 614.22 138.88 613.87 138.62 613.53 138.28 613.22 137.84 612.93 137.32 612.66 136.71 612.41 136.18 612.24 135.46 612.03 134.52 611.78 133.39 611.50 132.05 611.19 130.69 610.86 129.51 610.54 128.51 610.22 127.68 609.92 127.03 609.61 126.34 609.21 125.72 608.77 125.18 608.29 124.71 607.78 124.31 607.23 123.99 606.65 123.74 606.04 123.56 605.41 123.45 604.74 123.42 604.05 123.47 603.29 123.60 602.54 123.82 601.82 124.13 601.11 124.53 600.43 125.02 599.79 125.59 599.21 126.23 598.70 126.96 598.25 127.78 597.87 128.65 597.56 129.56 597.31 130.51 597.14 131.49 597.03 132.52 597.00 133.64 597.04 134.71 597.15 135.72 597.33 136.68 597.58 137.58 597.91 138.42 598.31 139.17 598.78 139.85 599.32 140.44 599.92 140.95 600.59 141.38 601.32 141.72 602.08 141.97 602.89 142.14 603.72 142.22 604.60 139.02 604.60 138.86 603.77 138.60 603.03 138.24 602.37 137.77 601.80 137.21 601.31 136.53 600.91 135.74 600.60 134.83 600.38 133.79 600.24 132.64 600.20 131.45 600.24 130.40 600.38 129.48 600.60 128.70 600.90 128.06 601.30 127.54 601.76 127.14 602.25 126.85 602.78 126.68 603.35 126.62 603.96 126.66 604.48 126.78 604.96 126.99 605.40 127.27 605.81 127.64 606.17 128.17 606.53 128.95 606.88 130.00 607.24 131.30 607.60 132.86 607.96 134.44 608.32 135.79 608.66 136.92 608.98 137.83 609.28 138.52 609.57 139.31 610.00 140.02 610.48 140.64 610.99 141.17 611.56 141.62 612.16 141.97 612.81 142.25 613.49 142.45 614.22 142.57 614.98 142.61 615.78 142.56 616.58 142.42 617.37 142.19 618.13 141.87 618.88 141.46 619.61 140.96 620.30 140.38 620.92 139.72 621.48 138.97 621.97 138.15 622.40 137.27 622.76 136.35 623.04 135.38 623.24 134.37 623.36 133.31 623.40 131.99 623.36 130.76 623.23 129.62 623.01 128.56 622.71 127.60 622.33 126.72 621.85 125.91 621.29 125.19 620.64 124.55 619.91 123.98 619.09 123.51 618.20 123.14 617.27 122.86 616.29 122.68 615.27 122.61 614.20 Z M 147.00 623.00 L 147.02 597.40 150.23 597.40 150.22 606.81 151.15 605.73 152.17 604.88 153.28 604.28 154.49 603.92 155.79 603.80 156.59 603.83 157.36 603.93 158.07 604.10 158.75 604.33 159.38 604.62 159.96 604.98 160.46 605.38 160.90 605.83 161.26 606.34 161.56 606.89 161.79 607.53 161.98 608.26 162.11 609.10 162.19 610.05 162.21 611.10 162.20 623.00 159.00 623.00 159.01 611.43 158.97 610.55 158.85 609.78 158.65 609.10 158.36 608.53 158.00 608.06 157.56 607.68 157.05 607.38 156.47 607.17 155.83 607.04 155.11 607.00 154.56 607.03 154.02 607.11 153.50 607.26 152.99 607.46 152.49 607.71 152.02 608.02 151.62 608.36 151.27 608.75 150.97 609.18 150.73 609.64 150.55 610.17 150.40 610.77 150.30 611.44 150.23 612.19 150.21 613.01 150.20 623.00 Z M 179.77 617.40 L 182.91 617.80 182.53 618.82 182.05 619.74 181.46 620.57 180.77 621.30 179.97 621.93 179.06 622.46 178.06 622.87 176.97 623.16 175.78 623.34 174.50 623.40 172.89 623.30 171.43 622.99 170.10 622.49 168.91 621.78 167.86 620.87 166.98 619.77 166.29 618.51 165.80 617.09 165.51 615.50 165.41 613.76 165.51 611.95 165.81 610.31 166.31 608.84 167.00 607.54 167.90 606.41 168.95 605.47 170.12 604.74 171.41 604.22 172.81 603.90 174.34 603.80 175.81 603.90 177.17 604.22 178.42 604.74 179.56 605.47 180.59 606.41 181.46 607.53 182.14 608.83 182.62 610.30 182.92 611.93 183.01 613.74 183.01 613.86 183.01 614.01 183.00 614.19 183.00 614.38 182.99 614.60 168.61 614.60 168.74 615.63 168.99 616.57 169.36 617.40 169.84 618.13 170.44 618.76 171.14 619.28 171.89 619.68 172.72 619.97 173.61 620.14 174.56 620.20 175.28 620.17 175.95 620.09 176.58 619.96 177.16 619.77 177.70 619.53 178.20 619.23 178.66 618.87 179.07 618.44 179.44 617.95 179.77 617.40 Z M 168.61 611.40 L 179.81 611.40 179.69 610.67 179.50 610.01 179.24 609.43 178.92 608.93 178.53 608.50 177.85 607.96 177.08 607.54 176.24 607.24 175.32 607.06 174.32 607.00 173.42 607.05 172.57 607.19 171.78 607.43 171.05 607.77 170.38 608.20 169.80 608.71 169.33 609.28 168.98 609.92 168.74 610.63 168.61 611.40 Z M 186.20 623.00 L 186.22 597.40 189.42 597.40 189.40 623.00 Z M 194.20 623.00 L 194.22 597.40 197.42 597.40 197.40 623.00 Z M 202.19 630.20 L 201.79 627.12 202.16 627.22 202.50 627.30 202.83 627.35 203.13 627.39 203.42 627.40 203.78 627.39 204.12 627.34 204.42 627.27 204.69 627.17 204.94 627.05 205.16 626.89 205.36 626.72 205.55 626.52 205.72 626.30 205.87 626.06 205.99 625.82 206.14 625.46 206.32 624.99 206.52 624.40 206.75 623.71 206.78 623.59 206.83 623.45 206.88 623.30 206.93 623.12 207.00 622.93 200.22 604.20 203.59 604.20 207.19 614.64 207.46 615.44 207.72 616.26 207.98 617.09 208.22 617.95 208.44 618.81 208.67 618.15 208.91 617.44 209.16 616.71 209.42 615.93 209.70 615.12 213.42 604.20 216.77 604.20 210.21 623.45 209.79 624.59 209.41 625.57 209.06 626.41 208.76 627.09 208.50 627.62 208.17 628.21 207.81 628.72 207.44 629.18 207.05 629.56 206.64 629.88 206.21 630.14 205.74 630.34 205.24 630.48 204.71 630.57 204.15 630.60 203.79 630.58 203.42 630.54 203.03 630.46 202.62 630.34 202.19 630.20 Z M 241.40 623.00 L 238.20 623.00 238.22 603.05 237.73 603.48 237.18 603.91 236.57 604.35 235.91 604.78 235.19 605.21 234.45 605.62 233.75 605.99 233.07 606.31 232.43 606.59 231.82 606.83 231.82 603.80 232.86 603.28 233.86 602.73 234.80 602.13 235.68 601.49 236.51 600.81 237.27 600.11 237.93 599.42 238.50 598.74 238.98 598.06 239.36 597.40 241.42 597.40 Z" />
<path fill="none" stroke="rgb(255,255,255)" stroke-width="2" d=" M 141 681 L 231 681 231 699 141 699 141 681 Z" />
<path fill="none" stroke="rgb(255,255,255)" stroke-width="2" d=" M 141 681 L 159 681 159 699 141 699 141 681 Z" />
<path fill="none" stroke="rgb(255,255,255)" stroke-width="2" d=" M 159 681 L 177 681 177 699 159 699 159 681 Z" />
<path fill="none" stroke="rgb(255,255,255)" stroke-width="2" d=" M 177 681 L 195 681 195 699 177 699 177 681 Z" />
<path fill="none" stroke="rgb(255,255,255)" stroke-width="2" d=" M 195 681 L 213 681 213 699 195 699 195 681 Z" />
<path fill="none" stroke="rgb(255,255,255)" stroke-width="2" d=" M 213 681 L 231 681 231 699 213 699 213 681 Z" />
<polyline points="211.00 481.00 211.00 391.00" fill="none" stroke="rgb(128,128,64)" stroke-width="4" />
<polyline points="241.00 481.00 241.00 391.00" fill="none" stroke="rgb(0,0,255)" stroke-width="4" />
<path fill="rgb(0,0,0)" stroke="rgb(0,0,0)" stroke-width="0" d=" M 202.38 335.40 L 202.38 337.00 193.98 337.00 193.98 336.77 194.00 336.55 194.03 336.33 194.08 336.11 194.15 335.90 194.29 335.55 194.45 335.21 194.65 334.87 194.87 334.53 195.12 334.20 195.42 333.86 195.77 333.51 196.17 333.14 196.62 332.75 197.13 332.34 197.90 331.68 198.57 331.08 199.12 330.55 199.56 330.08 199.89 329.68 200.14 329.31 200.34 328.94 200.48 328.58 200.56 328.22 200.59 327.87 200.56 327.53 200.48 327.21 200.35 326.92 200.17 326.65 199.94 326.40 199.66 326.18 199.35 326.02 199.01 325.90 198.64 325.82 198.24 325.80 197.81 325.82 197.42 325.89 197.07 326.01 196.75 326.17 196.46 326.38 196.22 326.64 196.03 326.92 195.90 327.25 195.82 327.61 195.79 328.00 194.19 327.80 194.29 327.13 194.46 326.53 194.71 325.99 195.03 325.52 195.42 325.12 195.87 324.79 196.38 324.53 196.96 324.35 197.58 324.24 198.27 324.20 198.97 324.24 199.60 324.36 200.17 324.57 200.68 324.86 201.14 325.23 201.52 325.65 201.81 326.12 202.02 326.63 202.15 327.18 202.19 327.77 202.18 328.08 202.14 328.38 202.08 328.69 202.00 328.99 201.90 329.29 201.77 329.59 201.61 329.89 201.42 330.21 201.20 330.53 200.95 330.85 200.65 331.21 200.27 331.60 199.81 332.04 199.27 332.52 198.66 333.05 198.14 333.47 197.69 333.84 197.32 334.15 197.03 334.39 196.82 334.59 196.65 334.75 196.49 334.91 196.35 335.07 196.22 335.24 196.10 335.40 Z M 203.98 333.60 L 205.58 333.40 205.70 333.84 205.85 334.23 206.03 334.57 206.23 334.85 206.46 335.08 206.72 335.27 207.02 335.41 207.35 335.52 207.71 335.58 208.11 335.60 208.58 335.57 209.01 335.49 209.40 335.34 209.75 335.15 210.06 334.89 210.32 334.59 210.52 334.27 210.67 333.92 210.75 333.54 210.78 333.13 210.75 332.75 210.67 332.39 210.53 332.06 210.33 331.76 210.07 331.48 209.77 331.24 209.43 331.06 209.07 330.93 208.68 330.85 208.25 330.83 208.06 330.83 207.85 330.85 207.63 330.89 207.39 330.94 207.13 331.00 207.31 329.40 207.37 329.41 207.43 329.41 207.48 329.42 207.52 329.42 207.57 329.42 207.96 329.40 208.34 329.35 208.70 329.25 209.05 329.12 209.38 328.96 209.67 328.76 209.90 328.51 210.06 328.23 210.15 327.91 210.19 327.55 210.16 327.25 210.09 326.98 209.98 326.73 209.81 326.50 209.60 326.30 209.36 326.12 209.08 325.98 208.78 325.88 208.45 325.82 208.10 325.80 207.75 325.82 207.42 325.88 207.11 325.98 206.83 326.12 206.57 326.30 206.35 326.52 206.15 326.78 206.00 327.08 205.87 327.42 205.79 327.80 204.19 327.60 204.33 326.98 204.54 326.42 204.80 325.92 205.12 325.48 205.50 325.09 205.93 324.77 206.40 324.52 206.91 324.34 207.45 324.24 208.04 324.20 208.46 324.22 208.85 324.27 209.24 324.36 209.61 324.48 209.97 324.64 210.31 324.83 210.61 325.04 210.88 325.28 211.12 325.55 211.32 325.84 211.49 326.15 211.62 326.46 211.71 326.79 211.77 327.12 211.79 327.45 211.77 327.77 211.72 328.08 211.63 328.37 211.50 328.66 211.34 328.93 211.15 329.18 210.92 329.42 210.66 329.63 210.36 329.82 210.03 329.99 210.46 330.12 210.85 330.29 211.20 330.51 211.51 330.77 211.77 331.08 211.99 331.43 212.16 331.81 212.28 332.23 212.36 332.68 212.38 333.16 212.33 333.82 212.18 334.43 211.94 335.00 211.60 335.53 211.15 336.02 210.64 336.45 210.07 336.78 209.45 337.01 208.78 337.15 208.06 337.20 207.40 337.16 206.80 337.04 206.23 336.84 205.72 336.56 205.25 336.20 204.84 335.77 204.51 335.30 204.26 334.78 204.08 334.21 203.98 333.60 Z M 213.78 330.70 L 213.80 329.83 213.86 329.03 213.96 328.29 214.09 327.62 214.26 327.02 214.47 326.48 214.71 326.00 214.99 325.57 215.31 325.20 215.66 324.90 216.05 324.65 216.48 324.45 216.94 324.31 217.45 324.23 217.99 324.20 218.40 324.22 218.79 324.27 219.16 324.35 219.52 324.46 219.86 324.61 220.18 324.79 220.46 325.00 220.72 325.24 220.95 325.51 221.15 325.80 221.33 326.13 221.49 326.48 221.64 326.86 221.78 327.26 221.90 327.70 222.00 328.17 222.08 328.71 222.14 329.31 222.17 329.98 222.18 330.70 222.16 331.57 222.11 332.37 222.01 333.10 221.88 333.77 221.71 334.37 221.51 334.91 221.27 335.40 220.99 335.82 220.67 336.19 220.32 336.50 219.93 336.75 219.50 336.95 219.03 337.09 218.52 337.17 217.98 337.20 217.26 337.15 216.62 337.01 216.03 336.76 215.51 336.42 215.05 335.98 214.60 335.23 214.24 334.33 213.99 333.27 213.83 332.06 213.78 330.70 Z M 215.38 330.70 L 215.41 331.83 215.50 332.80 215.65 333.59 215.86 334.22 216.13 334.67 216.44 335.01 216.78 335.27 217.15 335.45 217.55 335.56 217.98 335.60 218.40 335.56 218.80 335.45 219.17 335.27 219.51 335.01 219.83 334.67 220.10 334.21 220.31 333.59 220.46 332.79 220.55 331.83 220.58 330.70 220.56 329.60 220.47 328.65 220.33 327.87 220.12 327.24 219.86 326.77 219.56 326.42 219.21 326.15 218.84 325.96 218.42 325.84 217.97 325.80 217.55 325.83 217.15 325.94 216.79 326.11 216.46 326.35 216.16 326.66 215.88 327.17 215.67 327.83 215.51 328.64 215.42 329.60 215.38 330.70 Z M 232.96 337.00 L 227.88 324.20 229.59 324.20 232.99 333.42 233.15 333.86 233.30 334.29 233.44 334.70 233.56 335.11 233.68 335.50 233.80 335.08 233.93 334.67 234.07 334.25 234.21 333.84 234.36 333.42 237.79 324.20 239.50 324.20 234.61 337.00 Z M 239.49 337.00 L 244.61 324.20 245.97 324.20 251.07 337.00 249.38 337.00 247.92 333.00 242.64 333.00 241.18 337.00 Z M 243.23 331.40 L 247.33 331.40 246.18 328.25 245.96 327.64 245.76 327.09 245.58 326.60 245.42 326.17 245.29 325.80 245.14 326.20 244.99 326.61 244.83 327.05 244.66 327.50 244.49 327.98 Z M 261.78 332.45 L 263.38 332.86 263.14 333.67 262.82 334.39 262.44 335.04 262.00 335.60 261.48 336.09 260.91 336.49 260.29 336.80 259.62 337.02 258.90 337.16 258.13 337.20 257.34 337.17 256.62 337.07 255.95 336.90 255.34 336.66 254.80 336.36 254.31 335.99 253.87 335.57 253.48 335.08 253.14 334.53 252.85 333.92 252.61 333.28 252.42 332.61 252.29 331.93 252.21 331.23 252.18 330.50 252.22 329.73 252.31 328.99 252.46 328.29 252.67 327.64 252.95 327.02 253.28 326.46 253.66 325.95 254.09 325.50 254.57 325.11 255.10 324.77 255.67 324.49 256.27 324.28 256.88 324.12 257.52 324.03 258.18 324.00 258.92 324.04 259.61 324.16 260.25 324.36 260.84 324.64 261.38 325.00 261.87 325.43 262.29 325.92 262.66 326.49 262.95 327.11 263.19 327.80 261.59 328.18 261.39 327.67 261.16 327.22 260.90 326.83 260.60 326.49 260.28 326.22 259.92 325.99 259.52 325.82 259.09 325.70 258.62 325.62 258.12 325.60 257.54 325.63 257.00 325.71 256.50 325.85 256.03 326.04 255.61 326.28 255.23 326.58 254.90 326.91 254.62 327.27 254.38 327.68 254.19 328.12 254.05 328.59 253.93 329.06 253.85 329.53 253.80 330.01 253.78 330.50 253.80 331.12 253.86 331.70 253.96 332.25 254.09 332.77 254.27 333.26 254.48 333.70 254.74 334.10 255.04 334.46 255.38 334.76 255.77 335.02 256.18 335.23 256.61 335.39 257.05 335.51 257.50 335.58 257.97 335.60 258.53 335.57 259.06 335.47 259.55 335.31 260.00 335.09 260.42 334.81 260.80 334.46 261.12 334.05 261.39 333.58 261.61 333.04 261.78 332.45 Z" />
<path fill="rgb(0,0,0)" stroke="rgb(0,0,0)" stroke-width="0" d=" M 184.48 355.40 L 184.48 357.00 176.08 357.00 176.08 356.77 176.10 356.55 176.13 356.33 176.18 356.11 176.25 355.90 176.39 355.55 176.55 355.21 176.75 354.87 176.97 354.53 177.22 354.20 177.52 353.86 177.87 353.51 178.27 353.14 178.72 352.75 179.23 352.34 180.00 351.68 180.67 351.08 181.22 350.55 181.66 350.08 181.99 349.68 182.24 349.31 182.44 348.94 182.58 348.58 182.66 348.22 182.69 347.87 182.66 347.53 182.58 347.21 182.45 346.92 182.27 346.65 182.04 346.40 181.76 346.18 181.45 346.02 181.11 345.90 180.74 345.82 180.34 345.80 179.91 345.82 179.52 345.89 179.17 346.01 178.85 346.17 178.56 346.38 178.32 346.64 178.13 346.92 178.00 347.25 177.92 347.61 177.89 348.00 176.29 347.80 176.39 347.13 176.56 346.53 176.81 345.99 177.13 345.52 177.52 345.12 177.97 344.79 178.48 344.53 179.06 344.35 179.68 344.24 180.37 344.20 181.07 344.24 181.70 344.36 182.27 344.57 182.78 344.86 183.24 345.23 183.62 345.65 183.91 346.12 184.12 346.63 184.25 347.18 184.29 347.77 184.28 348.08 184.24 348.38 184.18 348.69 184.10 348.99 184.00 349.29 183.87 349.59 183.71 349.89 183.52 350.21 183.30 350.53 183.05 350.85 182.75 351.21 182.37 351.60 181.91 352.04 181.37 352.52 180.76 353.05 180.24 353.47 179.79 353.84 179.42 354.15 179.13 354.39 178.92 354.59 178.75 354.75 178.59 354.91 178.45 355.07 178.32 355.24 178.20 355.40 Z M 191.28 357.00 L 191.28 354.00 185.48 354.00 185.48 352.40 191.69 344.40 192.89 344.40 192.88 352.40 194.48 352.40 194.48 354.00 192.88 354.00 192.88 357.00 Z M 191.28 352.40 L 191.29 347.46 187.45 352.40 Z M 196.68 357.00 L 196.68 355.40 198.28 355.40 198.28 357.00 Z M 201.68 357.00 L 201.68 355.40 203.28 355.40 203.28 357.00 Z M 206.68 357.00 L 206.68 355.40 208.28 355.40 208.28 357.00 Z M 211.68 357.00 L 211.68 355.40 213.28 355.40 213.28 357.00 Z M 216.68 357.00 L 216.68 355.40 218.28 355.40 218.28 357.00 Z M 229.09 347.60 L 227.49 347.80 227.40 347.45 227.29 347.15 227.17 346.88 227.03 346.65 226.88 346.47 226.61 346.23 226.32 346.04 225.99 345.91 225.65 345.83 225.28 345.80 224.98 345.82 224.68 345.86 224.39 345.94 224.11 346.05 223.84 346.19 223.58 346.40 223.35 346.66 223.13 346.95 222.93 347.28 222.74 347.64 222.58 348.06 222.46 348.56 222.37 349.13 222.31 349.77 222.28 350.49 222.53 350.17 222.79 349.88 223.07 349.62 223.37 349.40 223.70 349.22 224.03 349.07 224.38 348.95 224.73 348.87 225.08 348.82 225.45 348.80 226.07 348.85 226.65 348.98 227.19 349.21 227.70 349.53 228.16 349.94 228.57 350.42 228.88 350.96 229.10 351.55 229.24 352.19 229.28 352.89 229.26 353.36 229.20 353.81 229.09 354.25 228.94 354.68 228.75 355.10 228.52 355.48 228.26 355.84 227.97 356.15 227.65 356.42 227.30 356.66 226.92 356.85 226.52 357.00 226.10 357.11 225.66 357.18 225.20 357.20 224.43 357.14 223.72 356.97 223.07 356.68 222.47 356.28 221.94 355.76 221.49 355.11 221.13 354.31 220.88 353.37 220.73 352.27 220.68 351.02 220.74 349.63 220.91 348.39 221.19 347.32 221.59 346.41 222.09 345.66 222.61 345.13 223.20 344.73 223.86 344.43 224.59 344.26 225.38 344.20 225.98 344.24 226.53 344.34 227.03 344.53 227.49 344.78 227.91 345.10 228.27 345.49 228.57 345.94 228.81 346.44 228.98 346.99 229.09 347.60 Z M 222.28 352.86 L 222.30 353.15 222.34 353.43 222.41 353.71 222.52 353.98 222.65 354.25 222.81 354.50 222.99 354.73 223.18 354.93 223.40 355.10 223.63 355.25 223.89 355.38 224.16 355.48 224.45 355.54 224.75 355.59 225.07 355.60 225.52 355.57 225.94 355.49 226.32 355.34 226.66 355.14 226.96 354.88 227.22 354.58 227.42 354.23 227.57 353.84 227.65 353.41 227.68 352.94 227.65 352.49 227.57 352.08 227.43 351.70 227.23 351.37 226.98 351.08 226.67 350.83 226.32 350.64 225.93 350.51 225.49 350.43 225.02 350.40 224.57 350.43 224.16 350.51 223.77 350.64 223.41 350.83 223.08 351.08 222.79 351.37 222.57 351.69 222.41 352.05 222.31 352.44 222.28 352.86 Z M 230.68 350.70 L 230.70 349.83 230.76 349.03 230.86 348.29 230.99 347.62 231.16 347.02 231.37 346.48 231.61 346.00 231.89 345.57 232.21 345.20 232.56 344.90 232.95 344.65 233.38 344.45 233.84 344.31 234.35 344.23 234.89 344.20 235.30 344.22 235.69 344.27 236.06 344.35 236.42 344.46 236.76 344.61 237.08 344.79 237.36 345.00 237.62 345.24 237.85 345.51 238.05 345.80 238.23 346.13 238.39 346.48 238.54 346.86 238.68 347.26 238.80 347.70 238.90 348.17 238.98 348.71 239.04 349.31 239.07 349.98 239.08 350.70 239.06 351.57 239.01 352.37 238.91 353.10 238.78 353.77 238.61 354.37 238.41 354.91 238.17 355.40 237.89 355.82 237.57 356.19 237.22 356.50 236.83 356.75 236.40 356.95 235.93 357.09 235.42 357.17 234.88 357.20 234.16 357.15 233.52 357.01 232.93 356.76 232.41 356.42 231.95 355.98 231.50 355.23 231.14 354.33 230.89 353.27 230.73 352.06 230.68 350.70 Z M 232.28 350.70 L 232.31 351.83 232.40 352.80 232.55 353.59 232.76 354.22 233.03 354.67 233.34 355.01 233.68 355.27 234.05 355.45 234.45 355.56 234.88 355.60 235.30 355.56 235.70 355.45 236.07 355.27 236.41 355.01 236.73 354.67 237.00 354.21 237.21 353.59 237.36 352.79 237.45 351.83 237.48 350.70 237.46 349.60 237.37 348.65 237.23 347.87 237.02 347.24 236.76 346.77 236.46 346.42 236.11 346.15 235.74 345.96 235.32 345.84 234.87 345.80 234.45 345.83 234.05 345.94 233.69 346.11 233.36 346.35 233.06 346.66 232.78 347.17 232.57 347.83 232.41 348.64 232.32 349.60 232.28 350.70 Z M 249.86 357.00 L 244.78 344.20 246.49 344.20 249.89 353.42 250.05 353.86 250.20 354.29 250.34 354.70 250.46 355.11 250.58 355.50 250.70 355.08 250.83 354.67 250.97 354.25 251.11 353.84 251.26 353.42 254.69 344.20 256.40 344.20 251.51 357.00 Z M 257.88 357.00 L 257.89 344.20 262.31 344.20 262.88 344.21 263.39 344.23 263.85 344.27 264.25 344.32 264.59 344.38 265.02 344.50 265.42 344.65 265.80 344.84 266.15 345.05 266.47 345.30 266.86 345.66 267.20 346.06 267.50 346.50 267.76 346.97 267.99 347.49 268.17 348.04 268.31 348.61 268.41 349.22 268.47 349.86 268.48 350.53 268.47 351.10 268.43 351.64 268.36 352.16 268.27 352.65 268.14 353.11 268.00 353.55 267.84 353.95 267.66 354.33 267.47 354.67 267.26 354.98 267.05 355.26 266.82 355.52 266.59 355.75 266.34 355.96 266.09 356.14 265.83 356.30 265.54 356.45 265.24 356.57 264.91 356.69 264.56 356.78 264.19 356.86 263.80 356.92 263.39 356.96 262.96 356.99 262.51 357.00 Z M 259.48 355.40 L 262.31 355.40 262.81 355.39 263.27 355.36 263.68 355.32 264.05 355.25 264.37 355.17 264.66 355.07 264.92 354.95 265.16 354.82 265.37 354.68 265.56 354.52 265.80 354.26 266.02 353.98 266.21 353.66 266.38 353.31 266.53 352.93 266.66 352.51 266.76 352.06 266.83 351.58 266.87 351.06 266.88 350.51 266.86 349.75 266.78 349.07 266.64 348.47 266.45 347.94 266.21 347.48 265.92 347.08 265.61 346.74 265.28 346.46 264.93 346.23 264.55 346.06 264.23 345.96 263.84 345.89 263.39 345.84 262.87 345.81 262.28 345.80 259.49 345.80 Z M 279.68 352.45 L 281.28 352.86 281.04 353.67 280.72 354.39 280.34 355.04 279.90 355.60 279.38 356.09 278.81 356.49 278.19 356.80 277.52 357.02 276.80 357.16 276.03 357.20 275.24 357.17 274.52 357.07 273.85 356.90 273.24 356.66 272.70 356.36 272.21 355.99 271.77 355.57 271.38 355.08 271.04 354.53 270.75 353.92 270.51 353.28 270.32 352.61 270.19 351.93 270.11 351.23 270.08 350.50 270.12 349.73 270.21 348.99 270.36 348.29 270.57 347.64 270.85 347.02 271.18 346.46 271.56 345.95 271.99 345.50 272.47 345.11 273.00 344.77 273.57 344.49 274.17 344.28 274.78 344.12 275.42 344.03 276.08 344.00 276.82 344.04 277.51 344.16 278.15 344.36 278.74 344.64 279.28 345.00 279.77 345.43 280.19 345.92 280.56 346.49 280.85 347.11 281.09 347.80 279.49 348.18 279.29 347.67 279.06 347.22 278.80 346.83 278.50 346.49 278.18 346.22 277.82 345.99 277.42 345.82 276.99 345.70 276.52 345.62 276.02 345.60 275.44 345.63 274.90 345.71 274.40 345.85 273.93 346.04 273.51 346.28 273.13 346.58 272.80 346.91 272.52 347.27 272.28 347.68 272.09 348.12 271.95 348.59 271.83 349.06 271.75 349.53 271.70 350.01 271.68 350.50 271.70 351.12 271.76 351.70 271.86 352.25 271.99 352.77 272.17 353.26 272.38 353.70 272.64 354.10 272.94 354.46 273.28 354.76 273.67 355.02 274.08 355.23 274.51 355.39 274.95 355.51 275.40 355.58 275.87 355.60 276.43 355.57 276.96 355.47 277.45 355.31 277.90 355.09 278.32 354.81 278.70 354.46 279.02 354.05 279.29 353.58 279.51 353.04 279.68 352.45 Z" />
<path fill="rgb(0,0,0)" stroke="rgb(0,0,0)" stroke-width="0" d=" M 204.58 377.00 L 202.98 377.00 202.99 367.02 202.74 367.24 202.47 367.46 202.16 367.67 201.83 367.89 201.47 368.10 201.10 368.31 200.75 368.49 200.42 368.65 200.09 368.79 199.79 368.91 199.79 367.40 200.31 367.14 200.81 366.86 201.28 366.56 201.72 366.24 202.13 365.90 202.51 365.55 202.85 365.21 203.13 364.87 203.37 364.53 203.56 364.20 204.59 364.20 Z M 216.58 375.40 L 216.58 377.00 208.18 377.00 208.18 376.77 208.20 376.55 208.23 376.33 208.28 376.11 208.35 375.90 208.49 375.55 208.65 375.21 208.85 374.87 209.07 374.53 209.32 374.20 209.62 373.86 209.97 373.51 210.37 373.14 210.82 372.75 211.33 372.34 212.10 371.68 212.77 371.08 213.32 370.55 213.76 370.08 214.09 369.68 214.34 369.31 214.54 368.94 214.68 368.58 214.76 368.22 214.79 367.87 214.76 367.53 214.68 367.21 214.55 366.92 214.37 366.65 214.14 366.40 213.86 366.18 213.55 366.02 213.21 365.90 212.84 365.82 212.44 365.80 212.01 365.82 211.62 365.89 211.27 366.01 210.95 366.17 210.66 366.38 210.42 366.64 210.23 366.92 210.10 367.25 210.02 367.61 209.99 368.00 208.39 367.80 208.49 367.13 208.66 366.53 208.91 365.99 209.23 365.52 209.62 365.12 210.07 364.79 210.58 364.53 211.16 364.35 211.78 364.24 212.47 364.20 213.17 364.24 213.80 364.36 214.37 364.57 214.88 364.86 215.34 365.23 215.72 365.65 216.01 366.12 216.22 366.63 216.35 367.18 216.39 367.77 216.38 368.08 216.34 368.38 216.28 368.69 216.20 368.99 216.10 369.29 215.97 369.59 215.81 369.89 215.62 370.21 215.40 370.53 215.15 370.85 214.85 371.21 214.47 371.60 214.01 372.04 213.47 372.52 212.86 373.05 212.34 373.47 211.89 373.84 211.52 374.15 211.23 374.39 211.02 374.59 210.85 374.75 210.69 374.91 210.55 375.07 210.42 375.24 210.30 375.40 Z M 227.56 377.00 L 222.48 364.20 224.19 364.20 227.59 373.42 227.75 373.86 227.90 374.29 228.04 374.70 228.16 375.11 228.28 375.50 228.40 375.08 228.53 374.67 228.67 374.25 228.81 373.84 228.96 373.42 232.39 364.20 234.10 364.20 229.21 377.00 Z M 235.58 377.00 L 235.59 364.20 240.01 364.20 240.58 364.21 241.09 364.23 241.55 364.27 241.95 364.32 242.29 364.38 242.72 364.50 243.12 364.65 243.50 364.84 243.85 365.05 244.17 365.30 244.56 365.66 244.90 366.06 245.20 366.50 245.46 366.97 245.69 367.49 245.87 368.04 246.01 368.61 246.11 369.22 246.17 369.86 246.18 370.53 246.17 371.10 246.13 371.64 246.06 372.16 245.97 372.65 245.84 373.11 245.70 373.55 245.54 373.95 245.36 374.33 245.17 374.67 244.96 374.98 244.75 375.26 244.52 375.52 244.29 375.75 244.04 375.96 243.79 376.14 243.53 376.30 243.24 376.45 242.94 376.57 242.61 376.69 242.26 376.78 241.89 376.86 241.50 376.92 241.09 376.96 240.66 376.99 240.21 377.00 Z M 237.18 375.40 L 240.01 375.40 240.51 375.39 240.97 375.36 241.38 375.32 241.75 375.25 242.07 375.17 242.36 375.07 242.62 374.95 242.86 374.82 243.07 374.68 243.26 374.52 243.50 374.26 243.72 373.98 243.91 373.66 244.08 373.31 244.23 372.93 244.36 372.51 244.46 372.06 244.53 371.58 244.57 371.06 244.58 370.51 244.56 369.75 244.48 369.07 244.34 368.47 244.15 367.94 243.91 367.48 243.62 367.08 243.31 366.74 242.98 366.46 242.63 366.23 242.25 366.06 241.93 365.96 241.54 365.89 241.09 365.84 240.57 365.81 239.98 365.80 237.19 365.80 Z M 257.38 372.45 L 258.98 372.86 258.74 373.67 258.42 374.39 258.04 375.04 257.60 375.60 257.08 376.09 256.51 376.49 255.89 376.80 255.22 377.02 254.50 377.16 253.73 377.20 252.94 377.17 252.22 377.07 251.55 376.90 250.94 376.66 250.40 376.36 249.91 375.99 249.47 375.57 249.08 375.08 248.74 374.53 248.45 373.92 248.21 373.28 248.02 372.61 247.89 371.93 247.81 371.23 247.78 370.50 247.82 369.73 247.91 368.99 248.06 368.29 248.27 367.64 248.55 367.02 248.88 366.46 249.26 365.95 249.69 365.50 250.17 365.11 250.70 364.77 251.27 364.49 251.87 364.28 252.48 364.12 253.12 364.03 253.78 364.00 254.52 364.04 255.21 364.16 255.85 364.36 256.44 364.64 256.98 365.00 257.47 365.43 257.89 365.92 258.26 366.49 258.55 367.11 258.79 367.80 257.19 368.18 256.99 367.67 256.76 367.22 256.50 366.83 256.20 366.49 255.88 366.22 255.52 365.99 255.12 365.82 254.69 365.70 254.22 365.62 253.72 365.60 253.14 365.63 252.60 365.71 252.10 365.85 251.63 366.04 251.21 366.28 250.83 366.58 250.50 366.91 250.22 367.27 249.98 367.68 249.79 368.12 249.65 368.59 249.53 369.06 249.45 369.53 249.40 370.01 249.38 370.50 249.40 371.12 249.46 371.70 249.56 372.25 249.69 372.77 249.87 373.26 250.08 373.70 250.34 374.10 250.64 374.46 250.98 374.76 251.37 375.02 251.78 375.23 252.21 375.39 252.65 375.51 253.10 375.58 253.57 375.60 254.13 375.57 254.66 375.47 255.15 375.31 255.60 375.09 256.02 374.81 256.40 374.46 256.72 374.05 256.99 373.58 257.21 373.04 257.38 372.45 Z" />
<path fill="none" stroke="rgb(255,255,255)" stroke-width="2" d=" M 306 612 L 272 661 256 650 290 601 306 612 Z" />
<path fill="rgb(0,0,0)" stroke="rgb(0,0,0)" stroke-width="0" d=" M 391.80 562.60 L 393.40 562.60 393.46 562.98 393.54 563.32 393.64 563.64 393.77 563.94 393.92 564.20 394.10 564.44 394.32 564.66 394.57 564.87 394.85 565.05 395.18 565.21 395.53 565.35 395.89 565.46 396.28 565.54 396.68 565.58 397.09 565.60 397.46 565.59 397.82 565.55 398.15 565.49 398.47 565.41 398.77 565.31 399.04 565.18 399.29 565.04 399.51 564.88 399.69 564.70 399.85 564.50 399.98 564.30 400.08 564.09 400.15 563.87 400.19 563.65 400.20 563.43 400.19 563.21 400.16 563.00 400.11 562.80 400.03 562.61 399.94 562.43 399.81 562.27 399.64 562.11 399.42 561.97 399.16 561.83 398.85 561.71 398.59 561.62 398.23 561.51 397.76 561.39 397.19 561.25 396.52 561.10 395.85 560.93 395.26 560.77 394.75 560.61 394.34 560.46 394.02 560.31 393.67 560.10 393.36 559.88 393.09 559.65 392.85 559.39 392.66 559.12 392.50 558.83 392.37 558.52 392.28 558.20 392.23 557.87 392.21 557.53 392.23 557.14 392.30 556.77 392.41 556.41 392.57 556.06 392.77 555.71 393.01 555.39 393.29 555.11 393.62 554.85 393.98 554.63 394.39 554.44 394.82 554.28 395.28 554.16 395.75 554.07 396.25 554.02 396.76 554.00 397.32 554.02 397.85 554.07 398.36 554.16 398.84 554.29 399.29 554.46 399.71 554.66 400.09 554.89 400.42 555.16 400.72 555.46 400.98 555.80 401.19 556.16 401.36 556.54 401.49 556.94 401.57 557.36 401.61 557.80 400.01 557.80 399.93 557.39 399.80 557.02 399.62 556.69 399.39 556.40 399.10 556.16 398.77 555.96 398.37 555.80 397.91 555.69 397.40 555.62 396.82 555.60 396.23 555.62 395.70 555.69 395.24 555.80 394.85 555.95 394.53 556.15 394.27 556.38 394.07 556.63 393.92 556.89 393.84 557.18 393.81 557.48 393.83 557.74 393.89 557.98 393.99 558.20 394.14 558.40 394.32 558.59 394.58 558.76 394.98 558.94 395.50 559.12 396.15 559.30 396.93 559.48 397.72 559.66 398.40 559.83 398.96 559.99 399.42 560.14 399.76 560.28 400.16 560.50 400.51 560.74 400.82 561.00 401.09 561.28 401.31 561.58 401.49 561.90 401.63 562.25 401.73 562.61 401.78 562.99 401.80 563.39 401.78 563.79 401.71 564.18 401.60 564.57 401.44 564.94 401.23 565.30 400.98 565.65 400.69 565.96 400.36 566.24 399.99 566.49 399.58 566.70 399.14 566.88 398.67 567.02 398.19 567.12 397.68 567.18 397.16 567.20 396.50 567.18 395.88 567.11 395.31 567.01 394.78 566.86 394.30 566.66 393.86 566.43 393.46 566.15 393.10 565.82 392.77 565.45 392.49 565.04 392.26 564.60 392.07 564.13 391.93 563.65 391.84 563.13 391.80 562.60 Z M 407.40 565.67 L 407.60 567.05 407.34 567.10 407.09 567.14 406.85 567.18 406.62 567.19 406.40 567.20 406.07 567.19 405.77 567.16 405.51 567.10 405.27 567.03 405.06 566.93 404.88 566.82 404.73 566.70 404.59 566.56 404.48 566.40 404.39 566.24 404.32 566.03 404.27 565.74 404.23 565.38 404.21 564.94 404.20 564.42 404.21 559.20 403.01 559.20 403.01 557.60 404.21 557.60 404.21 555.32 405.81 554.38 405.81 557.60 407.41 557.60 407.41 559.20 405.81 559.20 405.80 564.38 405.81 564.61 405.82 564.81 405.83 564.98 405.86 565.11 405.89 565.20 405.93 565.27 405.97 565.34 406.03 565.39 406.09 565.45 406.16 565.49 406.24 565.53 406.34 565.56 406.45 565.58 406.57 565.60 406.70 565.60 406.82 565.60 406.94 565.61 407.08 565.62 407.23 565.64 407.40 565.67 Z M 415.58 564.20 L 417.15 564.40 416.97 564.91 416.73 565.37 416.43 565.78 416.08 566.15 415.68 566.47 415.23 566.73 414.73 566.94 414.19 567.08 413.59 567.17 412.95 567.20 412.15 567.15 411.41 567.00 410.75 566.74 410.15 566.39 409.63 565.93 409.19 565.39 408.85 564.76 408.60 564.04 408.45 563.25 408.41 562.38 408.46 561.47 408.61 560.66 408.85 559.92 409.20 559.27 409.65 558.71 410.17 558.24 410.76 557.87 411.40 557.61 412.11 557.45 412.87 557.40 413.61 557.45 414.29 557.61 414.91 557.87 415.48 558.23 415.99 558.70 416.43 559.27 416.77 559.92 417.01 560.65 417.16 561.47 417.21 562.37 417.21 562.43 417.20 562.51 417.20 562.59 417.20 562.69 417.19 562.80 410.00 562.80 410.07 563.32 410.20 563.78 410.38 564.20 410.62 564.56 410.92 564.88 411.27 565.14 411.65 565.34 412.06 565.48 412.50 565.57 412.98 565.60 413.34 565.59 413.67 565.55 413.99 565.48 414.28 565.39 414.55 565.27 414.80 565.12 415.03 564.93 415.24 564.72 415.42 564.48 415.58 564.20 Z M 410.01 561.20 L 415.61 561.20 415.54 560.83 415.45 560.50 415.32 560.21 415.16 559.96 414.97 559.75 414.62 559.48 414.24 559.27 413.82 559.12 413.36 559.03 412.86 559.00 412.41 559.02 411.98 559.10 411.59 559.22 411.23 559.38 410.89 559.60 410.60 559.85 410.37 560.14 410.19 560.46 410.07 560.81 410.01 561.20 Z M 424.80 563.60 L 426.40 563.80 426.27 564.41 426.08 564.97 425.82 565.47 425.50 565.91 425.12 566.30 424.68 566.62 424.21 566.88 423.71 567.06 423.16 567.16 422.58 567.20 421.85 567.15 421.19 567.00 420.58 566.75 420.03 566.40 419.55 565.94 419.14 565.40 418.82 564.76 418.59 564.04 418.45 563.23 418.41 562.33 418.43 561.74 418.48 561.18 418.58 560.65 418.72 560.15 418.90 559.68 419.11 559.24 419.37 558.86 419.67 558.52 420.01 558.22 420.39 557.97 420.80 557.76 421.22 557.60 421.65 557.49 422.10 557.42 422.57 557.40 423.14 557.43 423.67 557.53 424.16 557.68 424.60 557.90 425.00 558.18 425.35 558.52 425.65 558.91 425.89 559.35 426.07 559.85 426.21 560.40 424.61 560.60 424.51 560.30 424.39 560.03 424.24 559.79 424.07 559.58 423.87 559.40 423.64 559.26 423.40 559.14 423.15 559.06 422.87 559.02 422.58 559.00 422.14 559.03 421.73 559.13 421.36 559.28 421.03 559.51 420.72 559.79 420.46 560.14 420.26 560.57 420.12 561.07 420.03 561.64 420.01 562.29 420.03 562.95 420.12 563.53 420.25 564.03 420.45 564.46 420.70 564.81 421.00 565.10 421.33 565.32 421.69 565.47 422.09 565.57 422.52 565.60 422.87 565.58 423.20 565.52 423.50 565.42 423.78 565.29 424.03 565.11 424.26 564.89 424.45 564.63 424.60 564.33 424.72 563.99 424.80 563.60 Z M 427.80 567.00 L 427.81 554.20 429.41 554.20 429.41 561.08 433.00 557.60 435.21 557.60 431.58 561.12 435.40 567.00 433.53 567.00 430.43 562.23 429.40 563.22 429.40 567.00 Z M 438.40 567.00 L 436.80 567.00 436.81 554.20 438.41 554.20 438.41 558.95 438.82 558.39 439.28 557.96 439.79 557.65 440.33 557.46 440.92 557.40 441.26 557.41 441.58 557.46 441.91 557.53 442.22 557.62 442.52 557.75 442.82 557.90 443.09 558.07 443.34 558.27 443.56 558.49 443.77 558.73 443.96 558.99 444.12 559.27 444.28 559.58 444.41 559.91 444.53 560.25 444.63 560.61 444.71 560.99 444.76 561.37 444.80 561.76 444.81 562.16 444.76 563.08 444.62 563.91 444.39 564.66 444.07 565.31 443.66 565.88 443.18 566.36 442.67 566.73 442.11 566.99 441.53 567.15 440.90 567.20 440.29 567.13 439.74 566.93 439.24 566.59 438.79 566.11 438.40 565.50 Z M 438.41 562.23 L 438.42 562.82 438.47 563.34 438.56 563.78 438.68 564.16 438.84 564.47 439.14 564.88 439.49 565.19 439.87 565.42 440.30 565.55 440.77 565.60 441.15 565.57 441.52 565.47 441.86 565.30 442.18 565.07 442.48 564.77 442.74 564.40 442.94 563.97 443.09 563.48 443.18 562.92 443.21 562.29 443.18 561.65 443.10 561.08 442.96 560.59 442.76 560.16 442.52 559.80 442.23 559.51 441.92 559.29 441.58 559.13 441.22 559.03 440.84 559.00 440.46 559.03 440.09 559.13 439.75 559.30 439.43 559.53 439.13 559.83 438.87 560.19 438.67 560.61 438.52 561.10 438.44 561.64 438.41 562.23 Z M 446.60 567.00 L 446.61 557.60 448.01 557.60 448.01 558.99 448.22 558.63 448.43 558.32 448.63 558.06 448.82 557.86 449.00 557.71 449.19 557.60 449.38 557.51 449.58 557.45 449.79 557.41 450.00 557.40 450.32 557.42 450.64 557.48 450.96 557.58 451.28 557.72 451.61 557.89 451.08 559.33 450.85 559.21 450.62 559.12 450.40 559.05 450.17 559.01 449.95 559.00 449.75 559.01 449.56 559.05 449.38 559.11 449.21 559.20 449.04 559.32 448.89 559.45 448.76 559.61 448.64 559.78 448.54 559.98 448.47 560.19 448.37 560.54 448.30 560.90 448.25 561.27 448.22 561.66 448.21 562.06 448.20 567.00 Z M 458.60 567.00 L 458.60 565.38 458.15 566.04 457.63 566.55 457.05 566.91 456.41 567.13 455.71 567.20 455.39 567.19 455.08 567.15 454.78 567.09 454.49 567.00 454.21 566.88 453.94 566.75 453.71 566.60 453.50 566.44 453.32 566.27 453.17 566.08 453.04 565.88 452.93 565.66 452.84 565.43 452.76 565.17 452.70 564.90 452.66 564.69 452.64 564.44 452.62 564.14 452.61 563.80 452.60 563.42 452.61 557.60 454.21 557.60 454.20 562.66 454.21 563.11 454.22 563.50 454.24 563.83 454.27 564.09 454.30 564.29 454.37 564.53 454.47 564.74 454.60 564.93 454.75 565.10 454.93 565.25 455.13 565.38 455.35 565.47 455.59 565.54 455.85 565.59 456.12 565.60 456.40 565.59 456.68 565.54 456.95 565.47 457.21 565.37 457.46 565.24 457.69 565.09 457.90 564.92 458.08 564.72 458.23 564.51 458.34 564.27 458.44 564.01 458.51 563.69 458.56 563.34 458.59 562.94 458.61 562.49 458.61 557.60 460.21 557.60 460.20 567.00 Z M 453.81 556.60 L 453.81 555.00 455.41 555.00 455.41 556.60 Z M 457.01 556.60 L 457.01 555.00 458.61 555.00 458.61 556.60 Z M 468.40 563.60 L 470.00 563.80 469.87 564.41 469.68 564.97 469.42 565.47 469.10 565.91 468.72 566.30 468.28 566.62 467.81 566.88 467.31 567.06 466.76 567.16 466.18 567.20 465.45 567.15 464.79 567.00 464.18 566.75 463.63 566.40 463.15 565.94 462.74 565.40 462.42 564.76 462.19 564.04 462.05 563.23 462.01 562.33 462.03 561.74 462.08 561.18 462.18 560.65 462.32 560.15 462.50 559.68 462.71 559.24 462.97 558.86 463.27 558.52 463.61 558.22 463.99 557.97 464.40 557.76 464.82 557.60 465.25 557.49 465.70 557.42 466.17 557.40 466.74 557.43 467.27 557.53 467.76 557.68 468.20 557.90 468.60 558.18 468.95 558.52 469.25 558.91 469.49 559.35 469.67 559.85 469.81 560.40 468.21 560.60 468.11 560.30 467.99 560.03 467.84 559.79 467.67 559.58 467.47 559.40 467.24 559.26 467.00 559.14 466.75 559.06 466.47 559.02 466.18 559.00 465.74 559.03 465.33 559.13 464.96 559.28 464.63 559.51 464.32 559.79 464.06 560.14 463.86 560.57 463.72 561.07 463.63 561.64 463.61 562.29 463.63 562.95 463.72 563.53 463.85 564.03 464.05 564.46 464.30 564.81 464.60 565.10 464.93 565.32 465.29 565.47 465.69 565.57 466.12 565.60 466.47 565.58 466.80 565.52 467.10 565.42 467.38 565.29 467.63 565.11 467.86 564.89 468.05 564.63 468.20 564.33 468.32 563.99 468.40 563.60 Z M 471.40 567.00 L 471.41 554.20 473.01 554.20 473.01 561.08 476.60 557.60 478.81 557.60 475.17 561.12 479.00 567.00 477.13 567.00 474.03 562.23 473.00 563.22 473.00 567.00 Z M 486.98 564.20 L 488.55 564.40 488.37 564.91 488.13 565.37 487.83 565.78 487.48 566.15 487.08 566.47 486.63 566.73 486.13 566.94 485.59 567.08 484.99 567.17 484.35 567.20 483.55 567.15 482.81 567.00 482.15 566.74 481.55 566.39 481.03 565.93 480.59 565.39 480.25 564.76 480.00 564.04 479.85 563.25 479.81 562.38 479.86 561.47 480.01 560.66 480.25 559.92 480.60 559.27 481.05 558.71 481.57 558.24 482.16 557.87 482.80 557.61 483.51 557.45 484.27 557.40 485.01 557.45 485.69 557.61 486.31 557.87 486.88 558.23 487.39 558.70 487.83 559.27 488.17 559.92 488.41 560.65 488.56 561.47 488.61 562.37 488.61 562.43 488.60 562.51 488.60 562.59 488.60 562.69 488.59 562.80 481.40 562.80 481.47 563.32 481.60 563.78 481.78 564.20 482.02 564.56 482.32 564.88 482.67 565.14 483.05 565.34 483.46 565.48 483.90 565.57 484.38 565.60 484.74 565.59 485.07 565.55 485.39 565.48 485.68 565.39 485.95 565.27 486.20 565.12 486.43 564.93 486.64 564.72 486.82 564.48 486.98 564.20 Z M 481.41 561.20 L 487.01 561.20 486.94 560.83 486.85 560.50 486.72 560.21 486.56 559.96 486.37 559.75 486.02 559.48 485.64 559.27 485.22 559.12 484.76 559.03 484.26 559.00 483.81 559.02 483.38 559.10 482.99 559.22 482.63 559.38 482.29 559.60 482.00 559.85 481.77 560.14 481.59 560.46 481.47 560.81 481.41 561.20 Z" />
<path fill="rgb(0,0,0)" stroke="rgb(0,0,0)" stroke-width="0" d=" M 397.80 587.00 L 396.20 587.00 396.21 577.03 395.96 577.24 395.69 577.46 395.39 577.67 395.05 577.89 394.69 578.10 394.33 578.31 393.97 578.49 393.64 578.65 393.32 578.79 393.01 578.91 393.01 577.40 393.53 577.14 394.03 576.86 394.50 576.56 394.94 576.24 395.36 575.90 395.74 575.55 396.07 575.21 396.35 574.87 396.59 574.53 396.78 574.20 397.81 574.20 Z M 409.80 585.40 L 409.80 587.00 401.40 587.00 401.40 586.77 401.42 586.55 401.45 586.33 401.51 586.11 401.57 585.90 401.71 585.55 401.87 585.21 402.07 584.87 402.29 584.53 402.55 584.20 402.84 583.86 403.19 583.51 403.59 583.14 404.04 582.75 404.55 582.34 405.33 581.68 405.99 581.08 406.54 580.55 406.99 580.08 407.32 579.68 407.57 579.31 407.76 578.94 407.90 578.58 407.98 578.22 408.01 577.87 407.98 577.53 407.91 577.21 407.78 576.92 407.59 576.65 407.36 576.40 407.08 576.18 406.78 576.02 406.44 575.90 406.06 575.82 405.66 575.80 405.23 575.82 404.84 575.89 404.49 576.01 404.17 576.17 403.88 576.38 403.64 576.64 403.46 576.92 403.32 577.25 403.24 577.61 403.21 578.00 401.61 577.80 401.71 577.13 401.89 576.53 402.13 575.99 402.45 575.52 402.84 575.12 403.29 574.79 403.81 574.53 404.38 574.35 405.01 574.24 405.69 574.20 406.39 574.24 407.02 574.36 407.59 574.57 408.11 574.86 408.56 575.22 408.94 575.65 409.23 576.12 409.44 576.63 409.57 577.18 409.61 577.77 409.60 578.08 409.56 578.38 409.51 578.69 409.43 578.99 409.32 579.29 409.19 579.59 409.03 579.89 408.85 580.21 408.63 580.53 408.38 580.85 408.07 581.21 407.69 581.60 407.23 582.04 406.70 582.52 406.08 583.05 405.56 583.47 405.11 583.84 404.75 584.15 404.45 584.39 404.24 584.59 404.07 584.75 403.92 584.91 403.77 585.07 403.64 585.24 403.52 585.40 Z M 420.78 587.00 L 415.70 574.20 417.41 574.20 420.81 583.42 420.97 583.86 421.12 584.29 421.26 584.70 421.39 585.11 421.50 585.50 421.62 585.08 421.75 584.67 421.89 584.25 422.03 583.84 422.18 583.42 425.61 574.20 427.33 574.20 422.43 587.00 Z M 428.80 587.00 L 428.81 574.20 433.23 574.20 433.80 574.21 434.31 574.23 434.77 574.27 435.17 574.32 435.51 574.38 435.94 574.50 436.34 574.65 436.72 574.84 437.07 575.05 437.39 575.30 437.78 575.66 438.12 576.06 438.42 576.50 438.69 576.97 438.91 577.49 439.09 578.04 439.23 578.61 439.33 579.22 439.39 579.86 439.41 580.53 439.39 581.10 439.35 581.64 439.28 582.16 439.19 582.65 439.06 583.11 438.92 583.55 438.76 583.95 438.58 584.33 438.39 584.67 438.19 584.98 437.97 585.26 437.74 585.52 437.51 585.75 437.27 585.96 437.02 586.14 436.75 586.30 436.47 586.45 436.16 586.57 435.83 586.69 435.49 586.78 435.12 586.86 434.73 586.92 434.32 586.97 433.88 586.99 433.43 587.00 Z M 430.40 585.40 L 433.23 585.40 433.74 585.39 434.19 585.36 434.61 585.32 434.97 585.25 435.29 585.17 435.58 585.07 435.84 584.95 436.08 584.82 436.29 584.68 436.48 584.52 436.72 584.26 436.94 583.98 437.13 583.66 437.31 583.31 437.46 582.93 437.58 582.51 437.68 582.06 437.75 581.58 437.79 581.06 437.81 580.51 437.78 579.75 437.70 579.07 437.56 578.47 437.37 577.94 437.13 577.47 436.84 577.08 436.54 576.74 436.20 576.46 435.85 576.23 435.47 576.06 435.15 575.96 434.77 575.89 434.31 575.84 433.79 575.81 433.20 575.80 430.41 575.80 Z M 450.61 582.45 L 452.20 582.86 451.96 583.67 451.65 584.39 451.27 585.04 450.82 585.60 450.30 586.09 449.73 586.49 449.11 586.80 448.44 587.02 447.72 587.16 446.95 587.20 446.16 587.17 445.44 587.07 444.77 586.90 444.17 586.66 443.62 586.36 443.13 585.99 442.70 585.57 442.31 585.08 441.96 584.53 441.67 583.92 441.43 583.28 441.25 582.61 441.11 581.93 441.03 581.22 441.01 580.50 441.04 579.73 441.13 578.99 441.28 578.29 441.50 577.64 441.77 577.03 442.10 576.46 442.48 575.95 442.91 575.50 443.39 575.11 443.92 574.77 444.49 574.49 445.09 574.28 445.70 574.12 446.34 574.03 447.00 574.00 447.74 574.04 448.43 574.16 449.07 574.36 449.66 574.64 450.20 575.00 450.69 575.43 451.12 575.92 451.48 576.49 451.78 577.11 452.01 577.80 450.41 578.18 450.21 577.67 449.98 577.22 449.72 576.83 449.43 576.49 449.10 576.22 448.74 575.99 448.34 575.82 447.91 575.70 447.44 575.62 446.94 575.60 446.36 575.63 445.82 575.71 445.32 575.85 444.86 576.04 444.43 576.28 444.05 576.58 443.72 576.91 443.44 577.27 443.20 577.68 443.02 578.12 442.87 578.59 442.76 579.06 442.67 579.53 442.62 580.01 442.61 580.50 442.63 581.12 442.68 581.70 442.78 582.25 442.91 582.77 443.09 583.26 443.30 583.70 443.56 584.10 443.86 584.46 444.20 584.76 444.59 585.02 445.00 585.23 445.43 585.39 445.87 585.51 446.33 585.58 446.79 585.60 447.35 585.57 447.88 585.47 448.37 585.31 448.82 585.09 449.24 584.81 449.62 584.46 449.94 584.05 450.22 583.58 450.44 583.04 450.61 582.45 Z" />
<polyline points="401.00 601.00 331.00 621.00 301.00 631.00" fill="none" stroke="rgb(0,0,0)" stroke-width="4" />
<polygon points="330.41 611.71 301.00 631.00 336.10 628.79" fill="rgb(255,255,255)" stroke="rgb(0,0,0)" stroke-width="4" />
</svg>
